<svg version="1.1" xmlns="http://www.w3.org/2000/svg" xmlns:xlink="http://www.w3.org/1999/xlink" width="750.75075" height="596.65239" viewBox="0,0,750.75075,596.65239"><defs><linearGradient x1="287.22705" y1="-54.98495" x2="352.77302" y2="414.98505" gradientUnits="userSpaceOnUse" id="color-1"><stop offset="0" stop-color="#e2feff"/><stop offset="1" stop-color="#6debde"/></linearGradient><linearGradient x1="320.00003" y1="0.11904" x2="320.00003" y2="117.32556" gradientUnits="userSpaceOnUse" id="color-2"><stop offset="0" stop-color="#abddde"/><stop offset="1" stop-color="#abddde" stop-opacity="0"/></linearGradient><radialGradient cx="485.29407" cy="62.97999" r="59.42126" gradientUnits="userSpaceOnUse" id="color-3"><stop offset="0" stop-color="#ca0000"/><stop offset="1" stop-color="#ff0000"/></radialGradient><linearGradient x1="549.5229" y1="14.24418" x2="578.87938" y2="185.33398" gradientUnits="userSpaceOnUse" id="color-4"><stop offset="0" stop-color="#9d9d9d"/><stop offset="1" stop-color="#5a5a5a"/></linearGradient><linearGradient x1="563.24263" y1="152.35781" x2="563.24263" y2="436.25718" gradientUnits="userSpaceOnUse" id="color-5"><stop offset="0" stop-color="#261c16"/><stop offset="1" stop-color="#614928"/></linearGradient><linearGradient x1="265.11152" y1="167.82437" x2="354.73319" y2="167.82437" gradientUnits="userSpaceOnUse" id="color-6"><stop offset="0" stop-color="#969696" stop-opacity="0"/><stop offset="1" stop-color="#969696"/></linearGradient><linearGradient x1="246.61006" y1="190.02747" x2="291.50141" y2="190.02747" gradientUnits="userSpaceOnUse" id="color-7"><stop offset="0" stop-color="#969696" stop-opacity="0"/><stop offset="1" stop-color="#969696"/></linearGradient><linearGradient x1="229.00318" y1="174.88075" x2="284.6298" y2="174.88075" gradientUnits="userSpaceOnUse" id="color-8"><stop offset="0" stop-color="#969696" stop-opacity="0"/><stop offset="1" stop-color="#969696"/></linearGradient><linearGradient x1="232.1343" y1="157.65956" x2="277.02565" y2="157.65956" gradientUnits="userSpaceOnUse" id="color-9"><stop offset="0" stop-color="#969696" stop-opacity="0"/><stop offset="1" stop-color="#969696"/></linearGradient><linearGradient x1="223.3503" y1="110.85479" x2="312.97193" y2="110.85479" gradientUnits="userSpaceOnUse" id="color-10"><stop offset="0" stop-color="#969696" stop-opacity="0"/><stop offset="1" stop-color="#969696"/></linearGradient><linearGradient x1="26.312" y1="58.96605" x2="319.99109" y2="58.96605" gradientTransform="translate(-27.77334,-48.88568) scale(1.05554,1.02466)" gradientUnits="userSpaceOnUse" id="color-11"><stop offset="0" stop-color="#000000"/><stop offset="1" stop-color="#d94848"/></linearGradient><linearGradient x1="26.312" y1="58.96606" x2="319.99066" y2="58.96606" gradientTransform="translate(-27.77334,-48.88568) scale(1.05554,1.02466)" gradientUnits="userSpaceOnUse" id="color-12"><stop offset="0" stop-color="#000000"/><stop offset="1" stop-color="#de4949"/></linearGradient><linearGradient x1="320.00003" y1="362.3584" x2="320.00003" y2="245.15188" gradientUnits="userSpaceOnUse" id="color-13"><stop offset="0" stop-color="#abddde"/><stop offset="1" stop-color="#abddde" stop-opacity="0"/></linearGradient></defs><g transform="translate(55.37534,117.08748)"><g stroke-miterlimit="10"><path d="M-55.37533,414.98505v-469.96997h750.75075v469.96997z" fill="url(#color-1)" fill-rule="nonzero" stroke="#00c2c2" stroke-width="0" stroke-linecap="butt" stroke-linejoin="miter"/><g fill-rule="nonzero" stroke="#000000" stroke-width="0" stroke-linecap="butt" stroke-linejoin="miter"><path d="M-55.37533,117.32556v-117.20652h750.75075v117.20652z" fill="url(#color-2)"/><path d="M-55.37533,0.11904v-117.20652h750.75075v117.20652z" fill="#abddde"/></g><g fill-rule="evenodd" stroke-width="1.5"><g><path d="M160.95099,218.86616c0.66742,0.33712 2.08557,1.09527 0.06764,3.92951c-2.01794,2.8342 -7.78866,3.39597 -8.45745,3.39325c-2.59192,0.07307 -5.76869,0.06016 -9.27509,-1.12452c-10.1855,-3.38541 -10.22461,-14.33727 -6.95708,-16.07959c3.18392,-1.74266 4.57757,5.03466 9.15888,9.14967c1.99891,1.84733 4.42056,2.52597 6.42524,2.95214c2.84034,0.51313 8.28719,-2.64154 9.03789,-2.2205z" fill="#ffab19" stroke="#001026" stroke-linecap="round" stroke-linejoin="round"/><path d="M140.24587,212.01034c1.32842,2.26263 3.90708,5.44992 3.90708,5.44992c0,0 -3.0901,-0.76498 -4.85147,0.64906c-1.4256,1.08102 -1.09868,2.92155 -0.93385,3.50742c-1.08238,-1.09121 -2.41383,-2.60142 -3.23797,-5.5308c-0.82409,-2.92938 0.02618,-6.43712 1.7002,-6.93195c1.67334,-0.32763 2.08624,0.92808 3.41598,2.85631z" fill="#ffffff" stroke="none" stroke-linecap="butt" stroke-linejoin="miter"/></g><path d="M162.23282,228.71309c-1.73338,0.51593 -7.76959,2.50604 -14.69656,2.55985l-0.34422,-0.01852c-0.34422,-0.01853 -0.627,0.33177 -0.56564,0.70056c0.76778,2.33579 2.06369,6.93359 -2.74892,6.93868c-4.65281,0.05429 -9.09366,-13.64695 -4.82766,-15.56986c1.86248,-0.65112 3.04853,0.32643 3.66921,0.86744c0.35029,0.28281 0.74977,0.40584 1.17388,0.44896c1.05719,-0.02437 3.01176,-0.12228 4.59144,-0.42311c3.97685,-0.69981 4.99725,-1.17289 6.96426,-1.87929c1.96699,-0.70642 6.55261,-2.53088 8.72152,0.93616c1.89243,2.94454 -0.28381,4.89862 -1.93731,5.43913z" fill="#ffab19" stroke="#001026" stroke-linecap="round" stroke-linejoin="round"/><path d="M179.20349,214.36359c0.41665,0.3361 5.49173,6.37595 7.16982,4.87798c2.01352,-1.74742 4.78622,-5.16377 7.78459,-2.39278c2.99836,2.77099 -2.70542,7.42947 -5.1349,8.67361c-5.77889,2.56812 -10.44039,-2.38324 -11.43815,-3.72492c-0.99776,-1.34167 -2.74417,-3.60597 -2.73532,-5.77957c0.09312,-2.34042 2.93788,-2.91409 4.35394,-1.6543z" fill="#ffab19" stroke="#001026" stroke-linecap="round" stroke-linejoin="round"/><g><path d="M179.2079,233.84252c1.74912,1.59551 5.58145,4.87151 5.58145,4.87151c0,0 11.96318,-2.04139 11.9387,3.97778c-0.00366,0.90043 -0.7801,2.26066 -0.7801,2.26066l-13.58554,1.83535c0,0 -0.77974,-0.72997 -1.19636,-1.06604c-1.83274,-1.59584 -7.08044,-6.29882 -10.41117,-9.57279c-4.91266,-4.86881 -8.99608,-8.0622 -8.99608,-8.0622c-7.07771,-6.96762 -1.2975,-9.87012 0.97601,-13.87373c2.1039,-3.41906 3.0208,-2.74653 8.03265,-1.72296c2.84067,0.42957 4.51162,0.68714 6.35115,0.61102c2.75912,-0.07238 2.24123,3.93834 1.48032,6.02526c0,0 -1.18297,3.08842 -2.27621,4.67239c-1.34543,1.91735 -2.35366,3.16727 -3.35992,3.91557z" fill="#ffab19" stroke="#001026" stroke-linecap="round" stroke-linejoin="round"/><path d="M172.21074,227.62767c0,0 -1.24993,-1.00828 -2.5824,-2.26772c-1.66586,-1.51155 -3.33274,-2.77238 -1.65023,-5.35714c1.51292,-2.00027 2.94501,-4.66966 6.69711,-2.23001c3.58559,2.27181 1.98871,4.35529 1.98871,4.35529c-1.85447,3.75449 -4.45318,5.49954 -4.45318,5.49954z" fill="#ffffff" stroke="none" stroke-linecap="butt" stroke-linejoin="miter"/></g><path d="M156.03248,217.25478c-0.43145,2.94547 -0.59667,7.02142 -4.82991,6.08339c-5.39667,-1.67794 -2.15372,-10.40453 -0.60715,-13.02528c1.36159,-2.32993 4.07066,-1.90463 6.36767,-1.54916c4.35451,0.82294 8.12423,1.3941 9.51698,4.68273c1.78644,4.0676 -2.71088,4.18711 -5.24114,3.70731c-1.53029,-0.27638 -3.12122,-0.49516 -4.17875,-0.75923c-0.47583,0.10589 -0.89719,0.39058 -1.02767,0.86026z" fill="#ffab19" stroke="#001026" stroke-linecap="round" stroke-linejoin="round"/><g><path d="M186.17788,164.48235c0.25148,-0.16619 0.66913,-0.08088 0.75138,0.25387l2.13721,8.95393c0,0 5.33437,3.9509 6.91157,6.71614c2.65648,4.60882 2.7248,8.37115 2.7248,8.37115c0,0 5.92842,1.7797 6.91224,6.54893c0.98382,4.76923 -2.73123,13.783 -18.46046,16.81229c-15.72922,3.02928 -28.33538,-1.28559 -34.23217,-10.84003c-5.89682,-9.55444 3.5125,-20.88588 3.0082,-20.21912l-1.69475,-14.97139c-0.08224,-0.33474 0.33679,-0.58382 0.67048,-0.41529l10.08865,6.64545c0,0 3.76775,-1.40589 7.6976,-1.55712c2.34143,-0.15768 4.34714,0.01767 6.26857,0.35989z" fill="#ffab19" stroke="#001026" stroke-linecap="butt" stroke-linejoin="miter"/><path d="M198.45066,189.11083c0,0 5.76222,1.52822 6.74605,6.29746c0.98382,4.76923 -3.06394,13.36365 -18.62561,16.31c-20.24798,4.09774 -29.81296,-7.97964 -24.17579,-16.81838c5.63751,-8.92234 15.22051,-1.27575 22.24487,-1.7488c6.02086,-0.39355 6.71104,-5.65757 13.81052,-4.04031z" fill="#ffffff" stroke="none" stroke-linecap="butt" stroke-linejoin="miter"/><path d="M172.08055,197.94894c0.00135,-0.33441 0.3368,-0.58382 0.67085,-0.49886c1.58599,0.59163 6.0949,1.94759 11.10951,2.30239c4.51334,0.26916 7.18952,0.02921 8.44455,-0.21649c0.41835,-0.0819 0.75102,0.33746 0.58212,0.75477c-0.76155,2.25413 -3.96383,8.51117 -12.73969,7.97386c-7.60413,-0.86691 -8.33478,-6.22031 -8.06733,-10.31567z" fill="#ffffff" stroke="#001026" stroke-linecap="round" stroke-linejoin="round"/><path d="M213.82918,190.09297c-3.94207,3.16081 -9.96156,3.21994 -9.96156,3.21994" fill="none" stroke="#001026" stroke-linecap="round" stroke-linejoin="round"/><path d="M212.70435,199.45165c-5.26844,0.39661 -8.52237,-1.20505 -8.52237,-1.20505" fill="none" stroke="#001026" stroke-linecap="round" stroke-linejoin="round"/><path d="M184.31458,190.97619c1.75558,0.00714 3.59409,0.18181 3.67532,0.76734c0.07886,1.17073 -1.18467,3.50641 -2.52257,3.58457c-1.50546,0.1611 -5.00814,-1.94316 -5.00271,-3.28076c-0.07952,-1.00354 2.178,-1.07797 3.84998,-1.07118z" fill="#001026" stroke="#001026" stroke-linecap="round" stroke-linejoin="round"/><path d="M146.70003,189.56928c0,0 7.18,2.36998 10.09545,4.97347" fill="none" stroke="#001026" stroke-linecap="round" stroke-linejoin="round"/><path d="M157.03436,197.46978c-3.60053,1.40655 -9.78316,0.46182 -9.78316,0.46182" fill="none" stroke="#001026" stroke-linecap="round" stroke-linejoin="round"/><g><path d="M194.21906,181.2352c2.40908,3.77183 2.47534,8.0357 0.12847,9.53099c-2.34688,1.49526 -6.18532,-0.27595 -8.67802,-4.04811c-2.40908,-3.77183 -2.47534,-8.0357 -0.12847,-9.53099c2.34722,-1.57885 6.2689,0.27628 8.67802,4.04811z" fill="#ffffff" stroke="#001026" stroke-linecap="round" stroke-linejoin="round"/><path d="M195.27189,183.9716c-0.00374,0.9196 -0.67557,1.66928 -1.51157,1.66586c-0.83599,-0.0034 -1.50172,-0.75849 -1.49797,-1.67809c0.00374,-0.9196 0.67557,-1.66927 1.51157,-1.66585c0.83599,0.0034 1.50172,0.75849 1.49796,1.67808" fill="#001026" stroke="none" stroke-linecap="butt" stroke-linejoin="miter"/></g><g><path d="M173.47695,183.49168c2.49302,3.68855 2.30745,8.20224 0.04384,9.78145c-2.76522,1.57718 -6.43885,0.39185 -8.93185,-3.29674c-2.57664,-3.6889 -2.72445,-8.45473 -0.12542,-10.28339c2.59939,-1.91225 6.52041,0.11012 9.01343,3.79868z" fill="#ffffff" stroke="#001026" stroke-linecap="round" stroke-linejoin="round"/><path d="M174.36221,186.31104c-0.00373,0.9196 -0.67557,1.66925 -1.51157,1.66587c-0.83599,-0.0034 -1.50171,-0.75849 -1.49798,-1.67809c0.00373,-0.9196 0.67557,-1.66927 1.51157,-1.66586c0.83564,0.087 1.50171,0.75849 1.49795,1.67809" fill="#001026" stroke="none" stroke-linecap="butt" stroke-linejoin="miter"/></g></g></g><g fill="#4f00b0" fill-rule="nonzero" stroke-linecap="butt" stroke-linejoin="miter"><path d="M273.17797,397.61191l150.40727,-17.83954l1.42877,13.4636l-150.40725,17.83954z" stroke="#1c124f" stroke-width="1.5"/><path d="M274.6067,411.07551l-8.06865,-76.0325l12.73517,-1.51049l8.06865,76.0325z" stroke="#1c124f" stroke-width="1.5"/><path d="M418.64643,393.99123l-8.06865,-76.0325l12.73517,-1.5105l8.06866,76.03251z" stroke="#1c124f" stroke-width="1.5"/><path d="M278.068,398.02254l145.62107,-17.27185l1.20772,11.38061l-145.62107,17.27186z" stroke="none" stroke-width="0"/></g><g fill-rule="nonzero" stroke="#000000" stroke-width="0.5" stroke-linecap="butt" stroke-linejoin="miter"><path d="M545.95998,15.82482l9.44506,55.04584l-119.28349,4.08926z" fill="url(#color-3)"/><path d="M567.94743,158.35876l-23.07674,-142.83079l9.30439,-2.56747l24.64668,143.61577z" fill="url(#color-4)"/></g><g fill-rule="nonzero" stroke="#000000" stroke-width="0.5" stroke-linecap="butt" stroke-linejoin="miter"><path d="M664.01903,417.54398l-169.55533,10.52767l-35.12082,-245.54836l195.58375,-37.45329z" fill="url(#color-5)"/><path d="M658.79995,176.95063l-203.05693,24.17198l-3.74224,-32.03374l203.05693,-24.17198z" fill="#336130"/></g><path d="M278.5306,205.84515l76.20257,-38.02078" fill="none" fill-rule="nonzero" stroke="url(#color-6)" stroke-width="0.5" stroke-linecap="round" stroke-linejoin="miter"/><path d="M291.50141,179.2922l-44.89135,21.47055" fill="none" fill-rule="nonzero" stroke="url(#color-7)" stroke-width="0.5" stroke-linecap="round" stroke-linejoin="miter"/><path d="M229.00318,187.62888l55.62661,-25.49628" fill="none" fill-rule="nonzero" stroke="url(#color-8)" stroke-width="0.5" stroke-linecap="round" stroke-linejoin="miter"/><path d="M277.02565,146.92431l-44.89135,21.47055" fill="none" fill-rule="nonzero" stroke="url(#color-9)" stroke-width="0.5" stroke-linecap="round" stroke-linejoin="miter"/><path d="M236.76938,148.87557l76.20257,-38.02078" fill="none" fill-rule="nonzero" stroke="url(#color-10)" stroke-width="0.5" stroke-linecap="round" stroke-linejoin="miter"/><text transform="translate(26.31191,47.709) scale(0.94738,0.97593)" font-size="40" xml:space="preserve" fill="url(#color-11)" fill-rule="nonzero" stroke="url(#color-12)" stroke-width="2" stroke-linecap="butt" stroke-linejoin="miter" font-family="Pixel" font-weight="normal" text-anchor="start"><tspan x="0" dy="0">THE ULTIMATE</tspan><tspan x="0" dy="46.150000000000006px">SCRATCHER</tspan></text><g fill="#00afaf" fill-rule="nonzero" stroke="#12464f" stroke-linecap="butt" stroke-linejoin="miter"><path d="M242.13075,251.51032l-151.75518,20.83141l-2.21722,-12.28755l151.75518,-20.83141z" stroke-width="1.5"/><path d="M251.32077,302.44014l-151.75518,20.83141l-2.21722,-12.28755l151.75518,-20.83141z" stroke-width="1.5"/><path d="M96.96169,323.62899l-11.40723,-63.21737l14.08802,-1.93386l11.40723,63.21737z" stroke-width="1.5"/><path d="M131.04711,255.30949l1.83418,10.16482l-39.44646,5.72966l-1.83418,-10.47967c0,0 4.66781,-0.9268 8.21469,-1.41367c7.02949,-0.96494 31.23177,-4.00113 31.23177,-4.00113z" stroke-width="0"/><path d="M137.25207,306.54022l1.84658,10.23346c0,0 -19.04782,3.13945 -26.31013,4.13635c-5.13157,0.70441 -13.13632,1.27846 -13.13632,1.27846l-1.53172,-10.44338z" stroke-width="0"/></g><g fill-rule="nonzero" stroke="#000000" stroke-width="0" stroke-linecap="butt" stroke-linejoin="miter"><path d="M695.37542,245.15188v117.20652h-750.75075v-117.20652z" fill="url(#color-13)"/><path d="M695.37542,362.3584v117.20652h-750.75075v-117.20652z" fill="#abddde"/></g></g></g></svg>