<svg version="1.1" xmlns="http://www.w3.org/2000/svg" xmlns:xlink="http://www.w3.org/1999/xlink" width="785.67291" height="556.20872" viewBox="0,0,785.67291,556.20872"><defs><linearGradient x1="458.18911" y1="372.01306" x2="677.40832" y2="372.01306" gradientUnits="userSpaceOnUse" id="color-1"><stop offset="0" stop-color="#573e22"/><stop offset="1" stop-color="#432f1b"/></linearGradient><linearGradient x1="138.98419" y1="406.56007" x2="358.2034" y2="406.56007" gradientUnits="userSpaceOnUse" id="color-2"><stop offset="0" stop-color="#573e22"/><stop offset="1" stop-color="#432f1b"/></linearGradient><linearGradient x1="99.45081" y1="148.21026" x2="133.66134" y2="148.21026" gradientUnits="userSpaceOnUse" id="color-3"><stop offset="0" stop-color="#432f1b"/><stop offset="1" stop-color="#573e22"/></linearGradient><linearGradient x1="133.66134" y1="166.19035" x2="183.08764" y2="166.19035" gradientUnits="userSpaceOnUse" id="color-4"><stop offset="0" stop-color="#573e22"/><stop offset="1" stop-color="#432f1b"/></linearGradient><linearGradient x1="184.72692" y1="367.60437" x2="0" y2="367.60437" gradientUnits="userSpaceOnUse" id="color-5"><stop offset="0" stop-color="#573e22"/><stop offset="1" stop-color="#432f1b"/></linearGradient></defs><g transform="translate(103.13087,0.5)"><g stroke="#000000" stroke-miterlimit="10"><g stroke-width="1"><path d="M458.18911,520.66171v-297.2973h219.21922v297.2973z" fill="url(#color-1)"/><path d="M453.55539,231.74702v-17.2h228.48665v17.2z" fill="#12c11e"/></g><g stroke-width="1"><path d="M138.98419,555.20872v-297.2973h219.21922v297.2973z" fill="url(#color-2)"/><path d="M134.35047,266.29403v-17.2h228.48665v17.2z" fill="#12c11e"/></g><path d="M99.45081,158.03246v-19.6444h34.21053v19.6444z" fill="url(#color-3)" stroke-width="1"/><path d="M0,211.93734v-211.93734h13.23919v211.93734z" fill="#575757" stroke-width="1"/><path d="M133.66134,193.99265v-55.60459h49.4263v55.60459z" fill="url(#color-4)" stroke-width="1"/><path d="M0,555.20872l-96.89666,-214.71265l96.89667,-160.49606h222v20.71428l-7.22676,84.98754l-29.27324,60.79818l-0.77309,208.70871z" fill="url(#color-5)" stroke-width="1"/><path d="M-95.16239,351.22478l-7.38894,-13.65719l102.55134,-161.26759h228.36364v17.2h-226.26562z" fill="#12c11e" stroke-width="1"/><path d="" fill="#c21111" stroke-width="0"/></g></g></svg>