<svg version="1.1" xmlns="http://www.w3.org/2000/svg" xmlns:xlink="http://www.w3.org/1999/xlink" width="26.3913" height="26.39879" viewBox="0,0,26.3913,26.39879"><g transform="translate(-306.80435,-166.81613)"><g stroke-miterlimit="10"><g><path d="M306.80435,193.19565v-26.19781h26.3913v26.19781z" fill-opacity="0.00392" fill="#00ffff" fill-rule="nonzero" stroke-opacity="0.00874" stroke="#000000" stroke-width="0" stroke-linecap="butt" stroke-linejoin="miter"/><g fill-rule="evenodd" stroke="#000000"><path d="M315.99825,185.46684c0.21047,0.10524 0.65773,0.34202 0.02631,1.23653c-0.63142,0.89451 -2.44675,1.07867 -2.65722,1.07867c-0.81558,0.02631 -1.81533,0.02631 -2.92031,-0.34202c-3.20971,-1.05236 -3.23602,-4.49886 -2.20996,-5.05135c0.99975,-0.55249 1.447,1.57855 2.894,2.86769c0.63142,0.5788 1.39438,0.78927 2.0258,0.92082c0.89451,0.15785 2.6046,-0.84189 2.84138,-0.71035z" fill="#ffab19" stroke-width="0.5" stroke-linecap="round" stroke-linejoin="round"/><path d="M309.4736,183.3358c0.42095,0.71035 1.23653,1.71009 1.23653,1.71009c0,0 -0.97344,-0.23678 -1.52593,0.21047c-0.44725,0.34202 -0.34202,0.92082 -0.2894,1.10498c-0.34202,-0.34202 -0.76296,-0.81558 -1.02606,-1.7364c-0.26309,-0.92082 0,-2.0258 0.52618,-2.18366c0.52618,-0.10524 0.65773,0.2894 1.07867,0.89451z" fill="#ffffff" stroke-width="0" stroke-linecap="butt" stroke-linejoin="miter"/><path d="M309.4736,183.33579c0.42095,0.71035 1.23653,1.71009 1.23653,1.71009c0,0 -0.97344,-0.23678 -1.52593,0.21047c-0.44725,0.34202 -0.34202,0.92082 -0.2894,1.10498c-0.34202,-0.34202 -0.76296,-0.81558 -1.02606,-1.7364c-0.26309,-0.92082 0,-2.0258 0.52618,-2.18366c0.52618,-0.10524 0.65773,0.2894 1.07867,0.89451z" fill="none" stroke-width="0" stroke-linecap="butt" stroke-linejoin="miter"/><path d="M315.99825,185.46684c0.21047,0.10524 0.65773,0.34202 0.02631,1.23653c-0.63142,0.89451 -2.44675,1.07867 -2.65722,1.07867c-0.81558,0.02631 -1.81533,0.02631 -2.92031,-0.34202c-3.20971,-1.05236 -3.23602,-4.49886 -2.20996,-5.05135c0.99975,-0.55249 1.447,1.57855 2.894,2.86769c0.63142,0.5788 1.39438,0.78927 2.0258,0.92082c0.89451,0.15785 2.6046,-0.84189 2.84138,-0.71035z" fill="none" stroke-width="0.5" stroke-linecap="round" stroke-linejoin="round"/></g><path d="M317.31371,188.20298c-0.47356,0.31571 -2.10473,1.47331 -4.18315,2.13104l-0.10524,0.02631c-0.10524,0.02631 -0.15785,0.15785 -0.10524,0.26309c0.44725,0.63142 1.26284,1.89426 -0.18416,2.34151c-1.39438,0.44725 -3.99898,-3.26233 -2.894,-4.23577c0.49987,-0.36833 0.94713,-0.18416 1.18391,-0.07893c0.13155,0.05262 0.26309,0.05262 0.39464,0.02631c0.31571,-0.10524 0.89451,-0.31571 1.34176,-0.55249c1.13129,-0.5788 1.39438,-0.81558 1.92056,-1.21022c0.52618,-0.39464 1.7364,-1.36807 2.70984,-0.52618c0.84189,0.71035 0.36833,1.49962 -0.07893,1.81533z" fill="#ffab19" fill-rule="evenodd" stroke="#000000" stroke-width="0.5" stroke-linecap="round" stroke-linejoin="round"/><path d="M321.49686,182.73069c0.13155,0.10524 1.7364,1.99949 2.26258,1.52593c0.63142,-0.55249 1.49962,-1.63116 2.44675,-0.76296c0.94713,0.8682 -0.84189,2.34151 -1.60486,2.73615c-1.81533,0.81558 -3.28864,-0.73665 -3.60435,-1.1576c-0.31571,-0.42095 -0.8682,-1.13129 -0.8682,-1.81533c0.02631,-0.73665 0.92082,-0.92082 1.36807,-0.52618z" fill="#ffab19" fill-rule="evenodd" stroke="#000000" stroke-width="0.5" stroke-linecap="round" stroke-linejoin="round"/><path d="M321.52317,188.86071c0.55249,0.49987 1.76271,1.52593 1.76271,1.52593c0,0 3.7622,-0.65773 3.7622,1.23653c0,1.13129 -1.89426,1.39438 -4.44624,1.1576c-0.15785,-0.02631 -0.31571,-0.07893 -0.44725,-0.18416c-0.5788,-0.49987 -2.23627,-1.97318 -3.28864,-2.99924c-1.55224,-1.52593 -2.84138,-2.52567 -2.84138,-2.52567c-2.23627,-2.18366 -0.42095,-3.10447 0.2894,-4.36731c0.65773,-1.07867 0.94713,-0.8682 2.52567,-0.55249c0.89451,0.13155 1.42069,0.21047 1.99949,0.18416c0.8682,-0.02631 0.71035,1.23653 0.47356,1.89426c0,0 -0.36833,0.97344 -0.71035,1.47331c-0.42095,0.60511 -0.73665,0.99975 -1.05236,1.23653z" fill="#ffab19" fill-rule="evenodd" stroke="#000000" stroke-width="0.5" stroke-linecap="round" stroke-linejoin="round"/><path d="M319.31321,186.91384c0,0 -0.39464,-0.31571 -0.81558,-0.71035c-0.52618,-0.47356 -1.05236,-0.8682 -0.52618,-1.68378c0.47356,-0.63142 0.92082,-1.47331 2.10473,-0.71035c1.13129,0.71035 0.63142,1.36807 0.63142,1.36807c-0.5788,1.18391 -1.39438,1.7364 -1.39438,1.7364z" fill="#ffffff" fill-rule="evenodd" stroke="#000000" stroke-width="0" stroke-linecap="butt" stroke-linejoin="miter"/><path d="M315.34053,184.75649c0.5788,0.73665 1.47331,1.65747 0.34202,2.42044c-1.55224,0.8682 -2.84138,-1.76271 -3.10447,-2.68353c-0.23678,-0.81558 0.44725,-1.34176 1.02606,-1.78902c1.13129,-0.81558 2.07842,-1.55224 3.13078,-1.1576c1.31546,0.47356 0.36833,1.52593 -0.2894,1.99949c-0.39464,0.2894 -0.78927,0.60511 -1.07867,0.78927c-0.07893,0.13155 -0.10524,0.2894 -0.02631,0.42095z" fill="#ffab19" fill-rule="evenodd" stroke="#000000" stroke-width="0.5" stroke-linecap="round" stroke-linejoin="round"/><path d="M323.6279,167.02415c0.07893,-0.05262 0.21047,-0.02631 0.23678,0.07893l0.68404,2.81507c0,0 1.68378,1.23653 2.18366,2.10473c0.84189,1.447 0.8682,2.63091 0.8682,2.63091c0,0 1.86795,0.55249 2.18366,2.05211c0.31571,1.49962 -0.84189,4.341 -5.788,5.31444c-4.94611,0.97344 -8.91879,-0.36833 -10.78673,-3.36757c-1.86795,-2.99924 1.07867,-6.57728 0.92082,-6.3668l-0.55249,-4.70933c-0.02631,-0.10524 0.10524,-0.18416 0.21047,-0.13155l3.1834,2.07842c0,0 1.18391,-0.44725 2.42044,-0.49987c0.73665,-0.05262 1.36807,0 1.97318,0.10524z" fill="#ffab19" fill-rule="evenodd" stroke="#000000" stroke-width="0.5" stroke-linecap="butt" stroke-linejoin="miter"/><path d="M327.52165,174.75903c0,0 1.81533,0.47356 2.13104,1.97318c0.31571,1.49962 -0.94713,4.20946 -5.84062,5.15658c-6.3668,1.31546 -9.39235,-2.47306 -7.62964,-5.26182c1.76271,-2.81507 4.78826,-0.42095 6.99822,-0.5788c1.89426,-0.13155 2.10473,-1.78902 4.341,-1.28915z" fill="#ffffff" fill-rule="evenodd" stroke="#000000" stroke-width="0" stroke-linecap="butt" stroke-linejoin="miter"/><path d="M319.23428,177.57411c0,-0.10524 0.10524,-0.18416 0.21047,-0.15785c0.49987,0.18416 1.92056,0.60511 3.49911,0.71035c1.42069,0.07893 2.26258,0 2.65722,-0.07893c0.13155,-0.02631 0.23678,0.10524 0.18416,0.23678c-0.23678,0.71035 -1.23653,2.68353 -3.99898,2.52567c-2.39413,-0.26309 -2.63091,-1.94687 -2.55198,-3.23602z" fill="#ffffff" fill-rule="evenodd" stroke="#000000" stroke-width="0.5" stroke-linecap="round" stroke-linejoin="round"/><path d="M332.36251,175.04843c-1.23653,0.99975 -3.13078,1.02606 -3.13078,1.02606" fill="none" fill-rule="evenodd" stroke="#000000" stroke-width="0.5" stroke-linecap="round" stroke-linejoin="round"/><path d="M332.02051,177.99505c-1.65747,0.13155 -2.68353,-0.36833 -2.68353,-0.36833" fill="none" fill-rule="evenodd" stroke="#000000" stroke-width="0.5" stroke-linecap="round" stroke-linejoin="round"/><path d="M323.07541,175.36414c0.55249,0 1.13129,0.05262 1.1576,0.23678c0.02631,0.36833 -0.36833,1.10498 -0.78927,1.13129c-0.47356,0.05262 -1.57855,-0.60511 -1.57855,-1.02606c-0.02631,-0.31571 0.68404,-0.34202 1.21022,-0.34202z" fill="#000000" fill-rule="evenodd" stroke="#000000" stroke-width="0.5" stroke-linecap="round" stroke-linejoin="round"/><path d="M311.23631,174.9695c0,0 2.26258,0.73665 3.1834,1.55224" fill="none" fill-rule="evenodd" stroke="#000000" stroke-width="0.5" stroke-linecap="round" stroke-linejoin="round"/><path d="M314.49864,177.44256c-1.13129,0.44725 -3.07817,0.15785 -3.07817,0.15785" fill="none" fill-rule="evenodd" stroke="#000000" stroke-width="0.5" stroke-linecap="round" stroke-linejoin="round"/><path d="M326.17988,172.28598c0.76296,1.18391 0.78927,2.52567 0.05262,2.99924c-0.73665,0.47356 -1.94687,-0.07893 -2.73615,-1.26284c-0.76296,-1.18391 -0.78927,-2.52567 -0.05262,-2.99924c0.73665,-0.49987 1.97318,0.07893 2.73615,1.26284z" fill="#ffffff" fill-rule="evenodd" stroke="#000000" stroke-width="0.5" stroke-linecap="round" stroke-linejoin="round"/><path d="M326.07464,173.78559c0,0.2894 -0.21047,0.52618 -0.47356,0.52618c-0.26309,0 -0.47356,-0.23678 -0.47356,-0.52618c0,-0.2894 0.21047,-0.52618 0.47356,-0.52618c0.26309,0 0.47356,0.23678 0.47356,0.52618" fill="#000000" fill-rule="evenodd" stroke="#000000" stroke-width="0" stroke-linecap="butt" stroke-linejoin="miter"/><path d="M319.65522,173.02263c0.78927,1.1576 0.73665,2.57829 0.02631,3.07817c-0.8682,0.49987 -2.0258,0.13155 -2.81507,-1.02606c-0.81558,-1.1576 -0.8682,-2.65722 -0.05262,-3.23602c0.81558,-0.60511 2.05211,0.02631 2.84138,1.18391z" fill="#ffffff" fill-rule="evenodd" stroke="#000000" stroke-width="0.5" stroke-linecap="round" stroke-linejoin="round"/><path d="M319.49736,174.54856c0,0.2894 -0.21047,0.52618 -0.47356,0.52618c-0.26309,0 -0.47356,-0.23678 -0.47356,-0.52618c0,-0.2894 0.21047,-0.52618 0.47356,-0.52618c0.26309,0.02631 0.47356,0.23678 0.47356,0.52618" fill="#000000" fill-rule="evenodd" stroke="#000000" stroke-width="0" stroke-linecap="butt" stroke-linejoin="miter"/><path d="M323.6279,167.02415c0.07893,-0.05262 0.21047,-0.02631 0.23678,0.07893l0.68404,2.81507c0,0 1.68378,1.23653 2.18366,2.10473c0.84189,1.447 0.8682,2.63091 0.8682,2.63091c0,0 1.86795,0.55249 2.18366,2.05211c0.31571,1.49962 -0.84189,4.341 -5.788,5.31444c-4.94611,0.97344 -8.91879,-0.36833 -10.78673,-3.36757c-1.86795,-2.99924 1.07867,-6.57728 0.92082,-6.3668l-0.55249,-4.70933c-0.02631,-0.10524 0.10524,-0.18416 0.21047,-0.13155l3.1834,2.07842c0,0 1.18391,-0.44725 2.42044,-0.49987c0.73665,-0.05262 1.36807,0 1.97318,0.10524z" fill="none" fill-rule="evenodd" stroke="#000000" stroke-width="0.5" stroke-linecap="butt" stroke-linejoin="miter"/></g></g></g></svg>