<svg version="1.1" xmlns="http://www.w3.org/2000/svg" xmlns:xlink="http://www.w3.org/1999/xlink" width="1089.09084" height="823.72401" viewBox="0,0,1089.09084,823.72401"><defs><linearGradient x1="95.45458" y1="0" x2="95.45458" y2="360" gradientUnits="userSpaceOnUse" id="color-1"><stop offset="0" stop-color="#bde0e8"/><stop offset="1" stop-color="#55e3e9"/></linearGradient></defs><g transform="translate(449.09084,360)"><g stroke-miterlimit="10"><path d="M-449.09084,360v-360h1089.09084v360z" fill="url(#color-1)" stroke="#de4ad2" stroke-width="0"/><g stroke="#3c3c3c" stroke-width="0"><path d="M-435.30375,387.58101l20.09445,-249.09259l197.01098,10.17885l-20.09445,249.09259z" fill="#abc2c3"/><path d="M-419.68616,144.32296l0.64134,-12.41315l205.33957,10.60916l-0.64134,12.41315z" fill="#94cfd2"/></g><g stroke="#3c3c3c" stroke-width="0"><path d="M118.40015,450l-29.76273,-212.77271l195.37165,-27.32867l29.76273,212.77271z" fill="#abc2c3"/><path d="M85.34697,243.8043l-1.72191,-12.30986l203.63094,-28.48398l1.72191,12.30986z" fill="#94cfd2"/></g><g stroke="#3c3c3c" stroke-width="0"><path d="M239.70321,409.64216v-214.84424h197.27376v214.84424z" fill="#abc2c3"/><path d="M235.53336,200.85568v-12.42971h205.61346v12.42971z" fill="#94cfd2"/></g><g stroke="#3c3c3c" stroke-width="0"><path d="M360.83865,453.54516l11.08544,-214.55806l197.01098,10.17885l-11.08544,214.55806z" fill="#abc2c3"/><path d="M367.44723,244.82164l0.64134,-12.41315l205.33957,10.60916l-0.64134,12.41315z" fill="#94cfd2"/></g><g stroke="#3c3c3c" stroke-width="0"><path d="M-333.72493,401.21619v-214.84424h197.27376v214.84424z" fill="#abc2c3"/><path d="M-337.89478,192.42971v-12.42971h205.61346v12.42971z" fill="#94cfd2"/></g><g stroke="#3c3c3c" stroke-width="0"><path d="M-212.58949,445.11919l11.08544,-214.55806l197.01098,10.17885l-11.08544,214.55806z" fill="#abc2c3"/><path d="M-205.98091,236.39567l0.64134,-12.41315l205.33957,10.60916l-0.64134,12.41315z" fill="#94cfd2"/></g><path d="M-449.09084,0v-360h1089.09084v360z" fill="#bde0e8" stroke="#de4ad2" stroke-width="0"/><text transform="translate(-20.30557,36.15623) scale(0.5,0.5)" font-size="40" xml:space="preserve" fill="#000000" stroke="none" stroke-width="1" font-family="Sans Serif" font-weight="normal" text-anchor="start"><tspan x="0" dy="0"> </tspan></text><g fill="#000000" stroke="none" stroke-width="1" font-family="Sans Serif" font-weight="normal" font-size="40" text-anchor="start"><text transform="translate(67.04428,41.99863) scale(0.32366,0.32366)" font-size="40" xml:space="preserve" fill="#000000"><tspan x="0" dy="0">Hello, this is a map test for my upcoming game!</tspan></text><text transform="translate(26.03007,71.51435) scale(0.32366,0.32366)" font-size="40" xml:space="preserve" fill="#000000"><tspan x="0" dy="0">space to switch between (WIP) Building mode and race mode</tspan></text><text transform="translate(73.39449,99.74932) scale(0.32366,0.32366)" font-size="40" xml:space="preserve" fill="#000000"><tspan x="0" dy="0">e to update the map after changing the width</tspan></text></g></g></g></svg>