<svg version="1.1" xmlns="http://www.w3.org/2000/svg" xmlns:xlink="http://www.w3.org/1999/xlink" width="736.63316" height="604.05735" viewBox="0,0,736.63316,604.05735"><defs><linearGradient x1="11.63372" y1="454.4087" x2="230.85293" y2="454.4087" gradientUnits="userSpaceOnUse" id="color-1"><stop offset="0" stop-color="#573e22"/><stop offset="1" stop-color="#432f1b"/></linearGradient><linearGradient x1="257.3904" y1="391.53156" x2="476.60961" y2="391.53156" gradientUnits="userSpaceOnUse" id="color-2"><stop offset="0" stop-color="#573e22"/><stop offset="1" stop-color="#432f1b"/></linearGradient><linearGradient x1="455.27538" y1="367.60436" x2="640.0023" y2="367.60436" gradientUnits="userSpaceOnUse" id="color-3"><stop offset="0" stop-color="#573e22"/><stop offset="1" stop-color="#432f1b"/></linearGradient></defs><g transform="translate(-6.5,0.5)"><g stroke="#000000" stroke-miterlimit="10"><g><path d="M11.63372,603.05735v-297.2973h219.21922v297.2973z" fill="url(#color-1)"/><path d="M7,314.14266v-17.2h228.48665v17.2z" fill="#12c11e"/></g><g><path d="M257.3904,540.18021v-297.2973h219.21922v297.2973z" fill="url(#color-2)"/><path d="M252.75668,251.26552v-17.2h228.48665v17.2z" fill="#12c11e"/></g><path d="M626.76082,211.93734v-211.93734h13.23918v211.93734z" fill="#575757"/><g><path d="M455.27539,555.20871l-0.77309,-208.70871l-29.27324,-60.79818l-7.22676,-84.98754v-20.71428h222l96.89666,160.49606l-96.89666,214.71265z" fill="url(#color-3)"/><path d="M637.90428,193.5h-226.26563v-17.2h228.36364l102.55133,161.26759l-7.38894,13.65719z" fill="#12c11e"/></g></g></g></svg>