<svg version="1.1" xmlns="http://www.w3.org/2000/svg" xmlns:xlink="http://www.w3.org/1999/xlink" width="134.23518" height="95.53528" viewBox="0,0,134.23518,95.53528"><g transform="translate(-280.79449,-84.25288)"><g fill-rule="evenodd" stroke-miterlimit="10"><g><path d="M356.96592,96.75379l9.03994,-11.7509l5.54565,13.79619c4.75127,1.77849 8.93107,4.7041 12.0419,8.62759c5.173,6.50791 5.45152,12.34516 5.45152,12.34516c0,0 7.12067,-0.19008 9.56597,8.51391c4.71015,16.62176 -14.50811,30.76472 -41.72342,32.26049c-20.49392,1.1234 -38.01,-9.1436 -39.53143,-24.62199c-1.3924,-13.93339 4.82518,-19.85495 4.82518,-19.85495l-5.95514,-22.97853l19.0418,9.00802c3.22552,-2.04693 6.85666,-3.59597 10.66793,-4.3587c3.61464,-0.69604 7.27016,-0.98226 11.03019,-0.98622z" fill="none" stroke="#231f20" stroke-width="1" stroke-linecap="round" stroke-linejoin="round"/><path d="M350.86857,158.13697c0,0 -9.46575,8.50583 -28.65726,15.54296c-18.69996,6.87043 -29.08323,7.21339 -30.10295,0.56836c-1.12425,-6.92748 6.24631,-6.14317 10.52051,-6.85097c3.71291,-0.72937 7.35629,-1.64698 10.89513,-2.84692l-2.25263,-7.2864c0.06344,-0.12735 34.19695,-17.31533 39.59728,0.87303z" fill="#de4ad2" stroke="#231f20" stroke-width="1.5" stroke-linecap="round" stroke-linejoin="round"/><path d="M316.2847,155.56393c0.77003,0.58629 2.50663,1.69222 -0.56128,5.06287c-3.06784,3.37052 -10.88893,3.16257 -11.81462,3.05273c-4.19424,-0.27259 -8.40069,-1.17652 -12.22624,-2.84511c-13.0107,-5.86297 -11.37217,-19.97674 -6.78674,-21.63741c4.32661,-1.56497 5.36598,5.84866 9.77726,11.71633c0.36403,0.48423 0.75104,0.95791 1.16473,1.41517c2.18932,2.32943 4.99083,3.92166 8.17338,4.74913c3.84816,1.13143 11.46864,-2.19403 12.27345,-1.51367z" fill="#de4ad2" stroke="#231f20" stroke-width="1.5" stroke-linecap="round" stroke-linejoin="round"/><path d="M294.78963,151.6533c-1.94093,-0.18925 -4.19058,0.34817 -5.80132,1.3181c-1.8574,1.25395 -2.5433,4.10447 -2.5433,4.10447c0,0 -1.2984,-1.26407 -2.48518,-3.21899c-0.83565,-1.37652 -1.5659,-3.12893 -1.96635,-4.87855c-0.94381,-5.16878 1.35294,-9.43731 3.4171,-9.71359c2.41811,-0.2118 3.3404,1.65808 4.80448,4.55119c0,0 1.93696,3.7579 2.77599,5.19538c0.61537,1.05428 1.79857,2.64201 1.79857,2.64201z" fill="#ffffff" stroke="none" stroke-width="1.5" stroke-linecap="butt" stroke-linejoin="miter"/><path d="M382.25777,143.99802c7.54875,-0.22936 19.77717,-5.75282 23.97966,-8.44878c6.71113,-4.28828 12.56616,6.75507 3.0738,12.19801c-9.59068,5.47643 -29.163,3.10947 -29.163,3.10947c-4.92325,-0.44902 -5.53752,-6.5962 2.10953,-6.85873z" fill="#f9a41f" stroke="none" stroke-width="1.5" stroke-linecap="butt" stroke-linejoin="miter"/><path d="M382.25777,143.99802c7.54875,-0.22936 19.77717,-5.75282 23.97966,-8.44878c6.71113,-4.28828 12.56616,6.75507 3.0738,12.19801c-9.59068,5.47643 -29.163,3.10947 -29.163,3.10947c-4.92325,-0.44902 -5.53752,-6.5962 2.10953,-6.85873z" fill="#de4ad2" stroke="#231f20" stroke-width="1.5" stroke-linecap="round" stroke-linejoin="round"/><path d="M325.9704,150.64369c-2.17085,-1.38231 -4.43375,-2.41568 -6.8873,-3.06672c-2.13794,-3.08826 -3.5245,-6.53728 -3.9914,-10.19225c4.19631,2.07262 8.10375,4.56086 11.75731,7.55896c3.01046,2.15699 3.22544,8.12166 -0.87866,5.70001z" fill="#231f20" stroke="#231f20" stroke-width="1.5" stroke-linecap="round" stroke-linejoin="round" opacity="0.1"/><path d="M325.9163,150.4974c-11.98259,-7.27067 -16.60887,-0.93545 -23.03335,-3.94738c-5.19159,-2.37058 -5.82632,-11.26468 5.29194,-11.11565c7.68805,0.14718 18.52164,9.39635 18.52164,9.39635c3.17843,2.31182 3.35867,8.18239 -0.78026,5.66664z" fill="#f9a41f" stroke="none" stroke-width="1.5" stroke-linecap="butt" stroke-linejoin="miter"/><path d="M325.9163,150.4974c-11.98259,-7.27067 -16.60887,-0.93545 -23.03335,-3.94738c-5.19159,-2.37058 -5.82632,-11.26468 5.29194,-11.11565c7.68805,0.14718 18.52164,9.39635 18.52164,9.39635c3.17843,2.31182 3.35867,8.18239 -0.78026,5.66664z" fill="#de4ad2" stroke="#231f20" stroke-width="1.5" stroke-linecap="round" stroke-linejoin="round"/><path d="M344.31303,156.86434c-0.12496,2.05489 -11.45436,9.70963 -19.14653,11.0469c-3.31972,0.59605 -6.81552,-1.07849 -5.03793,-4.64719c2.63171,-5.44704 16.56809,-9.64296 16.56809,-9.64296z" fill="#ffffff" stroke="none" stroke-width="1.5" stroke-linecap="butt" stroke-linejoin="miter"/><path d="M356.96592,96.85835l9.03994,-11.7509l5.54565,13.79618c4.75127,1.77849 8.93107,4.7041 12.0419,8.62759c5.173,6.50791 5.45152,12.34516 5.45152,12.34516c0,0 7.12067,-0.19008 9.56597,8.51391c4.71015,16.62176 -14.50811,30.76471 -41.72342,32.26049c-20.49392,1.1234 -38.01,-9.1436 -39.53143,-24.622c-1.3924,-13.93339 4.82518,-19.85495 4.82518,-19.85495l-5.95514,-22.97853l19.0418,9.00802c3.22552,-2.04693 6.85666,-3.59597 10.66793,-4.3587c3.61464,-0.69604 7.27016,-0.98226 11.03019,-0.98622z" fill="#f9a41f" stroke="none" stroke-width="1.5" stroke-linecap="butt" stroke-linejoin="miter"/><path d="M356.96592,96.75379l9.03994,-11.7509l5.54565,13.79618c4.75127,1.77849 8.93107,4.7041 12.0419,8.62759c5.173,6.50791 5.45152,12.34516 5.45152,12.34516c0,0 7.12067,-0.19008 9.56597,8.51391c4.71015,16.62176 -14.50811,30.76471 -41.72342,32.26049c-20.49392,1.1234 -38.01,-9.1436 -39.53143,-24.622c-1.3924,-13.93339 4.82518,-19.85495 4.82518,-19.85495l-5.95514,-22.97853l19.0418,9.00802c3.22552,-2.04693 6.85666,-3.59597 10.66793,-4.3587c3.61464,-0.69604 7.27016,-0.98226 11.03019,-0.98622z" fill="#de4ad2" stroke="#231f20" stroke-width="1.5" stroke-linecap="round" stroke-linejoin="round"/><path d="M389.43515,120.10537c4.23717,0.30646 6.8063,2.30133 8.96827,9.14109c1.01244,3.08575 1.00438,7.57106 -1.3588,12.18055c-4.57499,8.92375 -17.09918,18.31296 -41.9832,18.91381c-14.10999,0.97705 -27.132,-4.42554 -24.24743,-20.80752c2.64128,-15.08405 27.21981,-7.98912 36.53222,-10.58513c9.18286,-2.66069 12.26869,-9.5771 22.08894,-8.8428z" fill="#ffffff" stroke="none" stroke-width="1.5" stroke-linecap="butt" stroke-linejoin="miter"/><path d="M335.26777,102.20326l1.76537,0.8844" fill="none" stroke="#231f20" stroke-width="1.5" stroke-linecap="round" stroke-linejoin="round"/><path d="M321.19876,141.03385c0,0 -4.56287,1.1234 -6.9631,1.51366c-2.53334,0.3294 -5.10149,0.56469 -7.73923,0.61173" fill="none" stroke="#231f20" stroke-width="1.5" stroke-linecap="round" stroke-linejoin="round"/><path d="M303.78711,131.04924c3.0085,0.35688 5.88995,0.96877 8.64441,1.8354c2.85286,0.83342 5.71175,1.98243 8.40886,3.2923" fill="none" stroke="#231f20" stroke-width="1.5" stroke-linecap="round" stroke-linejoin="round"/><path d="M380.86341,107.92728c4.51777,5.0354 5.43308,11.39816 2.21988,14.07659c-3.31158,2.71163 -9.58444,0.70774 -14.10218,-4.32758c-4.51777,-5.0354 -5.43306,-11.39815 -2.21987,-14.07657c3.17839,-2.77252 9.58443,-0.70777 14.10214,4.3276z" fill="#ffffff" stroke="#231f20" stroke-width="1.5" stroke-linecap="round" stroke-linejoin="round"/><path d="M380.0811,111.79395c0.4178,1.1295 -0.31539,2.43723 -1.49509,2.83726c-1.17956,0.39996 -2.54557,-0.30196 -2.96332,-1.43133c-0.4178,-1.1295 0.15358,-2.27653 1.29841,-2.77071c1.27793,-0.43333 2.74227,0.23542 3.16001,1.36477v0" fill="#231f20" stroke="none" stroke-width="1.5" stroke-linecap="butt" stroke-linejoin="miter"/><path d="M350.43886,115.70147c4.51778,5.0354 5.01131,11.75307 1.08113,14.88635c-3.92999,3.13337 -10.7865,1.64498 -15.20596,-3.42363c-4.55259,-5.12953 -5.01121,-11.7531 -1.08118,-14.88632c3.93003,-3.13321 10.78664,-1.64503 15.20604,3.42367z" fill="#ffffff" stroke="#231f20" stroke-width="1.5" stroke-linecap="round" stroke-linejoin="round"/><path d="M349.46613,119.95051c0.02456,1.26283 -0.91138,2.32154 -2.23033,2.34515c-1.31883,0.02347 -2.42473,-0.87254 -2.44924,-2.1354c-0.08809,-1.13526 0.84779,-2.19404 2.03358,-2.27834c1.34753,-0.24515 2.58655,0.71174 2.64601,2.06859v0" fill="#231f20" stroke="none" stroke-width="1.5" stroke-linecap="butt" stroke-linejoin="miter"/><path d="M366.04623,126.19194c2.134,-0.51172 5.82857,-2.18825 6.50231,0.23146c0.1863,1.10193 -1.37636,5.55098 -3.87491,5.97442c-2.49851,0.42357 -7.5855,-1.66479 -7.65718,-3.65306c-0.07168,-1.9882 3.09241,-2.10786 5.02977,-2.55288z" fill="#231f20" stroke="#231f20" stroke-width="1.5" stroke-linecap="round" stroke-linejoin="round"/><path d="M378.15365,136.49203c0.57552,2.45302 -16.09695,6.72933 -16.62114,3.51752" fill="none" stroke="#231f20" stroke-width="1.5" stroke-linecap="round" stroke-linejoin="round"/><path d="M316.2847,155.56393c0.77003,0.58629 2.50663,1.69222 -0.56128,5.06287c-3.06784,3.37052 -10.88893,3.16257 -11.81462,3.05273c-4.19424,-0.27259 -8.40069,-1.17652 -12.22624,-2.84511c-13.0107,-5.86297 -11.37217,-19.97674 -6.78674,-21.63741c4.32661,-1.56497 5.36598,5.84866 9.77726,11.71633c0.36403,0.48423 0.75104,0.95791 1.16473,1.41517c2.18932,2.32943 4.99083,3.92166 8.17338,4.74913c3.84816,1.13143 11.46864,-2.19403 12.27345,-1.51367z" fill="none" stroke="#231f20" stroke-width="1.5" stroke-linecap="round" stroke-linejoin="round"/><path d="M319.83457,157.38492c0.46686,3.65489 -3.3465,7.70193 -8.40072,8.99209c-5.05441,1.29013 -9.41238,-0.62172 -9.78103,-4.30992c-0.36869,-3.68827 3.3464,-7.702 8.36601,-9.08622c5.05422,-1.29015 9.44716,0.71574 9.81573,4.40398z" fill="#f9a41f" stroke="none" stroke-width="1.5" stroke-linecap="butt" stroke-linejoin="miter"/><path d="M319.83457,157.38492c0.46686,3.65489 -3.3465,7.70193 -8.40072,8.99209c-5.05441,1.29013 -9.41238,-0.62172 -9.78103,-4.30992c-0.36869,-3.68827 3.3464,-7.702 8.36601,-9.08622c5.05422,-1.29015 9.44716,0.71574 9.81573,4.40398z" fill="#de4ad2" stroke="#231f20" stroke-width="1.5" stroke-linecap="round" stroke-linejoin="round"/><path d="M408.66109,118.47388c-1.51955,1.57453 -3.37505,2.83918 -5.43325,3.85481c-2.87937,1.18821 -5.69542,2.24894 -8.61584,3.0273" fill="none" stroke="#231f20" stroke-width="1.5" stroke-linecap="round" stroke-linejoin="round"/><path d="M408.99893,130.7524c-1.90254,0.53914 -3.87476,0.8901 -5.88171,1.14699c-2.56818,0.23521 -5.00944,0.21556 -7.4566,-0.11978" fill="none" stroke="#231f20" stroke-width="1.5" stroke-linecap="round" stroke-linejoin="round"/><path d="M356.96592,96.75379l9.03994,-11.7509l5.54565,13.79618c4.75127,1.77849 8.93107,4.7041 12.0419,8.62759c5.173,6.50791 5.45152,12.34516 5.45152,12.34516c0,0 7.12067,-0.19008 9.56597,8.51391c4.71015,16.62176 -14.50811,30.76471 -41.72342,32.26049c-20.49392,1.1234 -38.01,-9.1436 -39.53143,-24.622c-1.3924,-13.93339 4.82518,-19.85495 4.82518,-19.85495l-5.95514,-22.97853l19.0418,9.00802c3.22552,-2.04693 6.85666,-3.59597 10.66793,-4.3587c3.61464,-0.69604 7.27016,-0.98226 11.03019,-0.98622z" fill="none" stroke="#231f20" stroke-width="1.5" stroke-linecap="round" stroke-linejoin="round"/></g></g></g></svg>