<svg version="1.1" xmlns="http://www.w3.org/2000/svg" xmlns:xlink="http://www.w3.org/1999/xlink" width="26.76682" height="18.01659" viewBox="0,0,26.76682,18.01659"><g transform="translate(-306.3666,-175.08232)"><g stroke-miterlimit="10"><path d="M307.1142,193.09891v-17.45593h25.77162v17.45593z" fill-opacity="0.00392" fill="#009999" fill-rule="nonzero" stroke-opacity="0.00874" stroke="#000000" stroke-width="0" stroke-linecap="butt" stroke-linejoin="miter"/><g fill-rule="evenodd" stroke="#000000"><path d="M312.74817,188.00964c0.10498,0.16797 0.35692,0.50391 -0.46194,0.96584c-0.81884,0.46191 -2.28855,-0.10499 -2.45652,-0.18898c-0.77686,-0.33594 -1.51172,-0.79784 -2.12061,-1.38572c-2.05763,-2.03664 -0.75587,-4.72415 0.23095,-4.74513c1.00781,-0.02101 0.54591,1.78467 1.15477,3.33837c0.25197,0.60889 0.67187,1.1128 1.21778,1.49073c0.65089,0.48292 2.33058,0.33594 2.43556,0.52489z" fill="#ffab19" stroke-width="0.5" stroke-linecap="round" stroke-linejoin="round"/><path d="M308.57835,183.94164c0.09342,0.65087 0.28031,1.84766 0.28031,1.84766c-0.35507,-0.16797 -0.72882,-0.20996 -1.1026,-0.12597c-0.52326,0.14695 -0.6167,0.90283 -0.80358,0.54588c-0.16818,-0.58788 -0.22427,-1.21775 -0.13082,-1.82664c0.13082,-0.81886 0.7849,-1.67969 1.19603,-1.59572c0.42983,0.10498 0.4859,0.48292 0.56066,1.1548z" fill="#ffffff" stroke-width="0" stroke-linecap="butt" stroke-linejoin="miter"/><path d="M312.74817,188.00964c0.10498,0.16797 0.35692,0.50391 -0.46194,0.96584c-0.81884,0.46191 -2.28855,-0.10499 -2.45652,-0.18898c-0.77686,-0.33594 -1.51172,-0.79784 -2.12061,-1.38572c-2.05763,-2.03664 -0.75587,-4.72415 0.23095,-4.74513c1.00781,-0.02101 0.54591,1.78467 1.15477,3.33837c0.25197,0.60889 0.67187,1.1128 1.21778,1.49073c0.65089,0.48292 2.33058,0.33594 2.43556,0.52489z" fill="none" stroke-width="0.5" stroke-linecap="round" stroke-linejoin="round"/></g><path d="M319.13098,190.84414c0,0 -2.39356,1.04981 -6.5298,1.1548c-4.03125,0.10498 -6.0259,-0.52492 -5.75294,-1.91064c0.27295,-1.44873 1.6167,-0.79787 2.47756,-0.65089c0.75585,0.10498 1.51172,0.16797 2.26757,0.16797l0.084,-1.59572c0.02098,-0.02098 7.70556,-1.13378 7.45362,2.83449z" fill="#ffab19" fill-rule="evenodd" stroke="#000000" stroke-width="0.5" stroke-linecap="round" stroke-linejoin="round"/><path d="M326.0807,190.15127c1.44873,0.46191 4.15723,0.18895 5.14405,-0.06298c1.5747,-0.39895 1.91064,2.1836 -0.27295,2.62449c-2.2046,0.44092 -5.75294,-1.34376 -5.75294,-1.34376c-0.90283,-0.41991 -0.58787,-1.67969 0.88184,-1.21775z" fill="#f9a41f" fill-rule="evenodd" stroke="#000000" stroke-width="0.5" stroke-linecap="butt" stroke-linejoin="miter"/><path d="M326.0807,190.15127c1.44873,0.46191 4.15723,0.18895 5.14405,-0.06298c1.5747,-0.39895 1.91064,2.1836 -0.27295,2.62449c-2.2046,0.44092 -5.75294,-1.34376 -5.75294,-1.34376c-0.90283,-0.41991 -0.58787,-1.67969 0.88184,-1.21775z" fill="#ffab19" fill-rule="evenodd" stroke="#000000" stroke-width="0.5" stroke-linecap="round" stroke-linejoin="round"/><path d="M314.93175,187.68534c-0.31495,-0.41991 -0.67187,-0.77684 -1.09181,-1.0708c-0.18895,-0.75585 -0.20997,-1.53271 -0.042,-2.28858c0.65089,0.69288 1.21778,1.44873 1.7007,2.28858c0.41991,0.6299 0.04199,1.82667 -0.5669,1.0708z" fill="#231f20" fill-rule="evenodd" stroke="#000000" stroke-width="0.5" stroke-linecap="round" stroke-linejoin="round" opacity="0.1"/><path d="M314.93175,187.65273c-1.76369,-2.24658 -3.08642,-1.30175 -4.09424,-2.33058c-0.81886,-0.81884 -0.31495,-2.62449 1.78465,-1.84766c1.44873,0.54591 2.85547,3.10744 2.85547,3.10744c0.44092,0.67188 0.06301,1.84766 -0.54588,1.0708z" fill="#f9a41f" fill-rule="evenodd" stroke="#000000" stroke-width="0.5" stroke-linecap="butt" stroke-linejoin="miter"/><path d="M314.93175,187.65273c-1.76369,-2.24658 -3.08642,-1.30175 -4.09424,-2.33058c-0.81886,-0.81884 -0.31495,-2.62449 1.78465,-1.84766c1.44873,0.54591 2.85547,3.10744 2.85547,3.10744c0.44092,0.67188 0.06301,1.84766 -0.54588,1.0708z" fill="#ffab19" fill-rule="evenodd" stroke="#000000" stroke-width="0.5" stroke-linecap="round" stroke-linejoin="round"/><path d="M317.97619,190.15127c-0.16797,0.39892 -2.85547,1.15477 -4.40919,0.90283c-0.67187,-0.10498 -1.21776,-0.67187 -0.62988,-1.25978c0.88184,-0.90283 3.82129,-0.79784 3.82129,-0.79784z" fill="#ffffff" fill-rule="evenodd" stroke="#000000" stroke-width="0.5" stroke-linecap="butt" stroke-linejoin="miter"/><path d="M324.58995,179.1073l2.54055,-1.72167l0.08397,3.10742c0.77686,0.67188 1.36474,1.53273 1.67969,2.51953c0.52489,1.63769 0.16797,2.81347 0.16797,2.81347c0,0 1.36473,0.44092 1.21778,2.33058c-0.27295,3.61135 -4.9131,5.12306 -10.18312,3.59034c-3.96827,-1.15477 -6.57178,-4.3672 -5.77393,-7.53759c0.71388,-2.85547 2.30957,-3.61134 2.30957,-3.61134l0.48292,-4.95507l2.98145,3.06542c0.75585,-0.18895 1.55372,-0.25194 2.33058,-0.14696c0.73486,0.10498 1.44871,0.29394 2.16258,0.54588z" fill="#f9a41f" fill-rule="evenodd" stroke="#000000" stroke-width="0.5" stroke-linecap="butt" stroke-linejoin="miter"/><path d="M324.58995,179.1073l2.54055,-1.72167l0.08397,3.10742c0.77686,0.67188 1.36474,1.53273 1.67969,2.51953c0.52489,1.63769 0.16797,2.81347 0.16797,2.81347c0,0 1.36473,0.44092 1.21778,2.33058c-0.27295,3.61135 -4.9131,5.12306 -10.18312,3.59034c-3.96827,-1.15477 -6.57178,-4.3672 -5.77393,-7.53759c0.71388,-2.85547 2.30957,-3.61134 2.30957,-3.61134l0.48292,-4.95507l2.98145,3.06542c0.75585,-0.18895 1.55372,-0.25194 2.33058,-0.14696c0.73486,0.10498 1.44871,0.29394 2.16258,0.54588z" fill="#ffab19" fill-rule="evenodd" stroke="#000000" stroke-width="0.5" stroke-linecap="round" stroke-linejoin="round"/><path d="M328.9621,185.97101c0.78263,0.34554 1.18009,0.83802 1.11024,2.33911c-0.07186,1.99558 -3.1098,5.39872 -10.33575,3.04289c-2.46427,-0.79472 -4.88257,-2.57649 -3.1851,-5.62985c1.56018,-2.81244 5.72671,0.24591 7.67629,0.35724c1.92954,0.0898 2.92215,-0.91499 4.73432,-0.10939z" fill="#ffffff" fill-rule="evenodd" stroke="#000000" stroke-width="0" stroke-linecap="butt" stroke-linejoin="miter"/><path d="M320.0968,178.70838l0.27295,0.29396" fill="none" fill-rule="evenodd" stroke="#000000" stroke-width="0.5" stroke-linecap="round" stroke-linejoin="round"/><path d="M314.7008,185.45977c0,0 -0.94482,-0.084 -1.42774,-0.16797c-0.50391,-0.10498 -1.00782,-0.23095 -1.51172,-0.39892" fill="none" fill-rule="evenodd" stroke="#000000" stroke-width="0.5" stroke-linecap="round" stroke-linejoin="round"/><path d="M312.09728,182.31033c0.54591,0.27295 1.04981,0.58791 1.51172,0.94483c0.48292,0.35695 0.94483,0.77686 1.36474,1.21778" fill="none" fill-rule="evenodd" stroke="#000000" stroke-width="0.5" stroke-linecap="round" stroke-linejoin="round"/><path d="M328.34826,182.9076c0.50391,1.30177 0.23095,2.62452 -0.56689,2.93947c-0.81884,0.31492 -1.86865,-0.50391 -2.37256,-1.80566c-0.50391,-1.30177 -0.23095,-2.62451 0.56689,-2.93946c0.79784,-0.33594 1.86865,0.5039 2.37255,1.80566z" fill="#ffffff" fill-rule="evenodd" stroke="#000000" stroke-width="0.5" stroke-linecap="round" stroke-linejoin="round"/><path d="M327.92834,183.62147c0,0.25197 -0.23095,0.46191 -0.48292,0.46191c-0.25194,0 -0.46191,-0.23095 -0.46191,-0.48289c0,-0.25197 0.18896,-0.44093 0.44092,-0.46194c0.27295,0 0.50391,0.23098 0.50391,0.48292v0" fill="#000000" fill-rule="evenodd" stroke="#000000" stroke-width="0" stroke-linecap="butt" stroke-linejoin="miter"/><path d="M322.02843,182.40369c0.50391,1.30177 0.12599,2.66652 -0.83985,3.02344c-0.96581,0.35695 -2.16258,-0.39892 -2.6455,-1.70067c-0.50391,-1.32277 -0.12597,-2.66652 0.83984,-3.02344c0.96581,-0.35692 2.16261,0.39892 2.64551,1.70068z" fill="#ffffff" fill-rule="evenodd" stroke="#000000" stroke-width="0.5" stroke-linecap="round" stroke-linejoin="round"/><path d="M321.54554,183.18055c-0.08399,0.25197 -0.33594,0.39892 -0.58791,0.31495c-0.25194,-0.08399 -0.39892,-0.33593 -0.31492,-0.5879c0.06298,-0.23095 0.31492,-0.37792 0.54588,-0.31493c0.27295,0.04198 0.44092,0.31493 0.35695,0.58788v0" fill="#000000" fill-rule="evenodd" stroke="#000000" stroke-width="0" stroke-linecap="butt" stroke-linejoin="miter"/><path d="M324.25401,185.53212c0.44092,0.042 1.25978,-0.042 1.21778,0.48292c-0.042,0.23095 -0.65089,1.00781 -1.1548,0.92381c-0.50391,-0.08397 -1.32273,-0.83984 -1.19676,-1.23877c0.12597,-0.39892 0.73486,-0.20997 1.13378,-0.16797z" fill="#000000" fill-rule="evenodd" stroke="#000000" stroke-width="0.5" stroke-linecap="round" stroke-linejoin="round"/><path d="M325.82873,188.38759c-0.06298,0.52492 -3.52734,0.25197 -3.40135,-0.41991" fill="none" fill-rule="evenodd" stroke="#000000" stroke-width="0.5" stroke-linecap="round" stroke-linejoin="round"/><path d="M313.29405,188.60919c-0.16797,0.75585 -1.17579,1.30175 -2.22557,1.21778c-1.04981,-0.08399 -1.74267,-0.75587 -1.55372,-1.51172c0.18895,-0.75587 1.17578,-1.30177 2.22559,-1.23877c1.04978,0.08397 1.74267,0.77684 1.5537,1.5327z" fill="#f9a41f" fill-rule="evenodd" stroke="#000000" stroke-width="0.5" stroke-linecap="butt" stroke-linejoin="miter"/><path d="M332.88342,186.86651c-0.39892,0.20997 -0.83984,0.33594 -1.30175,0.39892c-0.62987,0.042 -1.23877,0.06298 -1.84766,0.02098" fill="none" fill-rule="evenodd" stroke="#000000" stroke-width="0.5" stroke-linecap="round" stroke-linejoin="round"/><path d="M332.08557,189.32305c-0.39892,-0.02101 -0.79785,-0.084 -1.19677,-0.16797c-0.50391,-0.12599 -0.96584,-0.29397 -1.40673,-0.52492" fill="none" fill-rule="evenodd" stroke="#000000" stroke-width="0.5" stroke-linecap="round" stroke-linejoin="round"/><path d="M313.29405,188.60919c-0.16797,0.75585 -1.17579,1.30175 -2.22557,1.21778c-1.04981,-0.08399 -1.74267,-0.75587 -1.55372,-1.51172c0.18895,-0.75587 1.17578,-1.30177 2.22559,-1.23877c1.04978,0.08397 1.74267,0.77684 1.5537,1.5327z" fill="#ffab19" fill-rule="evenodd" stroke="#000000" stroke-width="0.5" stroke-linecap="round" stroke-linejoin="round"/></g></g></svg>