<svg version="1.1" xmlns="http://www.w3.org/2000/svg" xmlns:xlink="http://www.w3.org/1999/xlink" width="640" height="897.79069" viewBox="0,0,640,897.79069"><defs><linearGradient x1="320" y1="0" x2="320" y2="360" gradientUnits="userSpaceOnUse" id="color-1"><stop offset="0" stop-color="#bde0e8"/><stop offset="1" stop-color="#55e3e9"/></linearGradient></defs><g transform="translate(0,360)"><g stroke-width="0" stroke-miterlimit="10"><path d="M0,360v-360h640v360z" fill="url(#color-1)" stroke="#de4ad2"/><g stroke="#3c3c3c"><path d="M39.29665,464.66493l-15.75131,-214.26606l196.74287,-14.46313l15.75131,214.26606z" fill="#abc2c3"/><path d="M15.68374,257.20844l-0.91129,-12.39628l205.06011,-15.07456l0.91129,12.39628z" fill="#94cfd2"/></g><g stroke="#3c3c3c"><path d="M179.43072,537.79069l-87.19659,-155.16379l87.19659,-115.98375h199.77617v14.96934l-6.50331,61.41692l-26.34277,43.93628l-0.6957,150.82499z" fill="#abc2c3"/><path d="M93.79479,390.38009l-6.64925,-9.86948l92.28518,-116.5413h205.50277v12.42972h-203.61478z" fill="#94cfd2"/></g><g stroke="#3c3c3c"><path d="M406.67742,505.68908l15.64583,-214.27379l196.74996,14.36628l-15.64583,214.27379z" fill="#abc2c3"/><path d="M417.72332,297.15331l0.90518,-12.39671l205.06752,14.97361l-0.90518,12.39671z" fill="#94cfd2"/></g><path d="M0,0v-360h640v360z" fill="#bde0e8" stroke="#de4ad2"/></g></g></svg>