<svg version="1.1" xmlns="http://www.w3.org/2000/svg" xmlns:xlink="http://www.w3.org/1999/xlink" width="1089.09084" height="842.28666" viewBox="0,0,1089.09084,842.28666"><defs><linearGradient x1="544.54542" y1="0" x2="544.54542" y2="360" gradientUnits="userSpaceOnUse" id="color-1"><stop offset="0" stop-color="#bde0e8"/><stop offset="1" stop-color="#55e3e9"/></linearGradient></defs><g transform="translate(0,360)"><g stroke-width="0" stroke-miterlimit="10"><path d="M0,360v-360h1089.09084v360z" fill="url(#color-1)" stroke="#de4ad2"/><g stroke="#3c3c3c"><g><path d="M331.30313,434.20658l-11.50261,-214.5361l196.99082,-10.5619l11.50261,214.5361z" fill="#abc2c3"/><path d="M315.96098,225.9428l-0.66548,-12.41188l205.31856,-11.0084l0.66548,12.41188z" fill="#94cfd2"/></g><g><path d="M150.74509,462.67452l21.35892,-213.7799l196.29646,19.61214l-21.35892,213.7799z" fill="#abc2c3"/><path d="M167.35259,254.50782l1.23571,-12.36813l204.59485,20.44124l-1.23571,12.36813z" fill="#94cfd2"/></g></g><g stroke="#3c3c3c"><g><path d="M708.85199,368.14052l-11.50261,-214.5361l196.99082,-10.5619l11.50261,214.5361z" fill="#abc2c3"/><path d="M693.50984,159.87674l-0.66548,-12.41188l205.31856,-11.0084l0.66548,12.41188z" fill="#94cfd2"/></g><g><path d="M528.29395,396.60846l21.35892,-213.7799l196.29646,19.61214l-21.35892,213.7799z" fill="#abc2c3"/><path d="M544.90145,188.44176l1.23571,-12.36813l204.59485,20.44124l-1.23571,12.36813z" fill="#94cfd2"/></g></g><path d="M0,0v-360h1089.09084v360z" fill="#bde0e8" stroke="#de4ad2"/></g></g></svg>