<svg version="1.1" xmlns="http://www.w3.org/2000/svg" xmlns:xlink="http://www.w3.org/1999/xlink" width="755.7297" height="485.61417" viewBox="0,0,755.7297,485.61417"><defs><linearGradient x1="287.22701" y1="-54.98502" x2="352.77298" y2="414.98499" gradientUnits="userSpaceOnUse" id="color-1"><stop offset="0" stop-color="#e2feff"/><stop offset="1" stop-color="#6debde"/></linearGradient><linearGradient x1="319.99998" y1="414.98498" x2="319.99998" y2="296.79361" gradientUnits="userSpaceOnUse" id="color-2"><stop offset="0" stop-color="#abddde" stop-opacity="0.18039"/><stop offset="1" stop-color="#abddde" stop-opacity="0"/></linearGradient><radialGradient cx="485.29408" cy="62.98" r="59.42126" gradientUnits="userSpaceOnUse" id="color-3"><stop offset="0" stop-color="#ca0000"/><stop offset="1" stop-color="#ff0000"/></radialGradient><linearGradient x1="549.52292" y1="14.24419" x2="578.87938" y2="185.334" gradientUnits="userSpaceOnUse" id="color-4"><stop offset="0" stop-color="#9d9d9d"/><stop offset="1" stop-color="#5a5a5a"/></linearGradient><linearGradient x1="563.24263" y1="152.35781" x2="563.24263" y2="436.25719" gradientUnits="userSpaceOnUse" id="color-5"><stop offset="0" stop-color="#261c16"/><stop offset="1" stop-color="#614928"/></linearGradient><linearGradient x1="265.11152" y1="167.82438" x2="354.7332" y2="167.82438" gradientUnits="userSpaceOnUse" id="color-6"><stop offset="0" stop-color="#969696" stop-opacity="0"/><stop offset="1" stop-color="#969696"/></linearGradient><linearGradient x1="246.61007" y1="190.02748" x2="291.50142" y2="190.02748" gradientUnits="userSpaceOnUse" id="color-7"><stop offset="0" stop-color="#969696" stop-opacity="0"/><stop offset="1" stop-color="#969696"/></linearGradient><linearGradient x1="229.00319" y1="174.88076" x2="284.6298" y2="174.88076" gradientUnits="userSpaceOnUse" id="color-8"><stop offset="0" stop-color="#969696" stop-opacity="0"/><stop offset="1" stop-color="#969696"/></linearGradient><linearGradient x1="232.13431" y1="157.65956" x2="277.02565" y2="157.65956" gradientUnits="userSpaceOnUse" id="color-9"><stop offset="0" stop-color="#969696" stop-opacity="0"/><stop offset="1" stop-color="#969696"/></linearGradient><linearGradient x1="223.35031" y1="110.8548" x2="312.97193" y2="110.8548" gradientUnits="userSpaceOnUse" id="color-10"><stop offset="0" stop-color="#969696" stop-opacity="0"/><stop offset="1" stop-color="#969696"/></linearGradient><linearGradient x1="26.31188" y1="58.96564" x2="319.98949" y2="58.96564" gradientTransform="translate(-27.77335,-48.88568) scale(1.05554,1.02466)" gradientUnits="userSpaceOnUse" id="color-11"><stop offset="0" stop-color="#000000"/><stop offset="1" stop-color="#d94848"/></linearGradient><linearGradient x1="26.31188" y1="58.96565" x2="319.98906" y2="58.96565" gradientTransform="translate(-27.77335,-48.88568) scale(1.05554,1.02466)" gradientUnits="userSpaceOnUse" id="color-12"><stop offset="0" stop-color="#000000"/><stop offset="1" stop-color="#de4949"/></linearGradient></defs><g transform="translate(60.35432,54.98499)"><g stroke-miterlimit="10"><path d="M-55.37537,414.98499v-469.96997h750.75075v469.96997z" fill="url(#color-1)" fill-rule="nonzero" stroke="#00c2c2" stroke-width="0" stroke-linecap="butt" stroke-linejoin="miter"/><path d="M695.37538,296.79361v118.19138h-750.75075v-118.19138z" fill="url(#color-2)" fill-rule="nonzero" stroke="#000000" stroke-width="0" stroke-linecap="butt" stroke-linejoin="miter"/><g fill-rule="nonzero" stroke="#000000" stroke-width="1.5" stroke-linecap="butt" stroke-linejoin="miter"><path d="M545.95998,15.82483l9.44506,55.04584l-119.28349,4.08926z" fill="url(#color-3)"/><path d="M567.94745,158.35877l-23.07674,-142.83079l8.69072,-2.29473l26.70293,143.63154z" fill="url(#color-4)"/></g><g fill-rule="evenodd" stroke-width="1.5"><g><path d="M160.951,218.86617c0.66742,0.33712 2.08557,1.09527 0.06764,3.92951c-2.01794,2.8342 -7.78866,3.39597 -8.45745,3.39325c-2.59192,0.07307 -5.76869,0.06016 -9.27509,-1.12452c-10.1855,-3.38541 -10.22461,-14.33727 -6.95708,-16.07959c3.18392,-1.74266 4.57757,5.03466 9.15888,9.14967c1.99891,1.84733 4.42056,2.52597 6.42524,2.95214c2.84034,0.51313 8.28719,-2.64154 9.03789,-2.2205z" fill="#ffab19" stroke="#001026" stroke-linecap="round" stroke-linejoin="round"/><path d="M140.24588,212.01035c1.32842,2.26263 3.90708,5.44992 3.90708,5.44992c0,0 -3.0901,-0.76498 -4.85147,0.64906c-1.4256,1.08102 -1.09868,2.92155 -0.93385,3.50742c-1.08238,-1.09121 -2.41383,-2.60142 -3.23797,-5.5308c-0.82409,-2.92938 0.02618,-6.43712 1.7002,-6.93195c1.67334,-0.32763 2.08624,0.92808 3.41598,2.85631z" fill="#ffffff" stroke="none" stroke-linecap="butt" stroke-linejoin="miter"/></g><path d="M162.23283,228.7131c-1.73338,0.51593 -7.76959,2.50604 -14.69656,2.55985l-0.34422,-0.01852c-0.34422,-0.01853 -0.627,0.33177 -0.56564,0.70056c0.76778,2.33579 2.06369,6.93359 -2.74892,6.93868c-4.65281,0.05429 -9.09366,-13.64695 -4.82766,-15.56986c1.86248,-0.65112 3.04853,0.32643 3.66921,0.86744c0.35029,0.28281 0.74977,0.40584 1.17388,0.44896c1.05719,-0.02437 3.01176,-0.12228 4.59144,-0.42311c3.97685,-0.69981 4.99725,-1.17289 6.96426,-1.87929c1.96699,-0.70642 6.55261,-2.53088 8.72152,0.93616c1.89243,2.94454 -0.28381,4.89862 -1.93731,5.43913z" fill="#ffab19" stroke="#001026" stroke-linecap="round" stroke-linejoin="round"/><path d="M179.2035,214.3636c0.41665,0.3361 5.49173,6.37595 7.16982,4.87798c2.01352,-1.74742 4.78622,-5.16377 7.78459,-2.39278c2.99836,2.77099 -2.70542,7.42947 -5.1349,8.67361c-5.77889,2.56812 -10.44039,-2.38324 -11.43815,-3.72492c-0.99776,-1.34167 -2.74417,-3.60597 -2.73532,-5.77957c0.09312,-2.34042 2.93788,-2.91409 4.35394,-1.6543z" fill="#ffab19" stroke="#001026" stroke-linecap="round" stroke-linejoin="round"/><g><path d="M179.20791,233.84253c1.74912,1.59551 5.58145,4.87151 5.58145,4.87151c0,0 11.96318,-2.04139 11.9387,3.97778c-0.00366,0.90043 -0.7801,2.26066 -0.7801,2.26066l-13.58554,1.83535c0,0 -0.77974,-0.72997 -1.19636,-1.06604c-1.83274,-1.59584 -7.08044,-6.29882 -10.41117,-9.57279c-4.91266,-4.86881 -8.99608,-8.0622 -8.99608,-8.0622c-7.07771,-6.96762 -1.2975,-9.87012 0.97601,-13.87373c2.1039,-3.41906 3.0208,-2.74653 8.03265,-1.72296c2.84067,0.42957 4.51162,0.68714 6.35115,0.61102c2.75912,-0.07238 2.24123,3.93834 1.48032,6.02526c0,0 -1.18297,3.08842 -2.27621,4.67239c-1.34543,1.91735 -2.35366,3.16727 -3.35992,3.91557z" fill="#ffab19" stroke="#001026" stroke-linecap="round" stroke-linejoin="round"/><path d="M172.21075,227.62768c0,0 -1.24993,-1.00828 -2.5824,-2.26772c-1.66586,-1.51155 -3.33274,-2.77238 -1.65023,-5.35714c1.51292,-2.00027 2.94501,-4.66966 6.69711,-2.23001c3.58559,2.27181 1.98871,4.35529 1.98871,4.35529c-1.85447,3.75449 -4.45318,5.49954 -4.45318,5.49954z" fill="#ffffff" stroke="none" stroke-linecap="butt" stroke-linejoin="miter"/></g><path d="M156.03249,217.25479c-0.43145,2.94547 -0.59667,7.02142 -4.82991,6.08339c-5.39667,-1.67794 -2.15372,-10.40453 -0.60715,-13.02528c1.36159,-2.32993 4.07066,-1.90463 6.36767,-1.54916c4.35451,0.82294 8.12423,1.3941 9.51698,4.68273c1.78644,4.0676 -2.71088,4.18711 -5.24114,3.70731c-1.53029,-0.27638 -3.12122,-0.49516 -4.17875,-0.75923c-0.47583,0.10589 -0.89719,0.39058 -1.02767,0.86026z" fill="#ffab19" stroke="#001026" stroke-linecap="round" stroke-linejoin="round"/><g><path d="M186.17789,164.48236c0.25148,-0.16619 0.66913,-0.08088 0.75138,0.25387l2.13721,8.95393c0,0 5.33437,3.9509 6.91157,6.71614c2.65648,4.60882 2.7248,8.37115 2.7248,8.37115c0,0 5.92842,1.7797 6.91224,6.54893c0.98382,4.76923 -2.73123,13.783 -18.46046,16.81229c-15.72922,3.02928 -28.33538,-1.28559 -34.23217,-10.84003c-5.89682,-9.55444 3.5125,-20.88588 3.0082,-20.21912l-1.69475,-14.97139c-0.08224,-0.33474 0.33679,-0.58382 0.67048,-0.41529l10.08865,6.64545c0,0 3.76775,-1.40589 7.6976,-1.55712c2.34143,-0.15768 4.34714,0.01767 6.26857,0.35989z" fill="#ffab19" stroke="#001026" stroke-linecap="butt" stroke-linejoin="miter"/><path d="M198.45067,189.11084c0,0 5.76222,1.52822 6.74605,6.29746c0.98382,4.76923 -3.06394,13.36365 -18.62561,16.31c-20.24798,4.09774 -29.81296,-7.97964 -24.17579,-16.81838c5.63751,-8.92234 15.22051,-1.27575 22.24487,-1.7488c6.02086,-0.39355 6.71104,-5.65757 13.81052,-4.04031z" fill="#ffffff" stroke="none" stroke-linecap="butt" stroke-linejoin="miter"/><path d="M172.08056,197.94895c0.00135,-0.33441 0.3368,-0.58382 0.67085,-0.49886c1.58599,0.59163 6.0949,1.94759 11.10951,2.30239c4.51334,0.26916 7.18952,0.02921 8.44455,-0.21649c0.41835,-0.0819 0.75102,0.33746 0.58212,0.75477c-0.76155,2.25413 -3.96383,8.51117 -12.73969,7.97386c-7.60413,-0.86691 -8.33478,-6.22031 -8.06733,-10.31567z" fill="#ffffff" stroke="#001026" stroke-linecap="round" stroke-linejoin="round"/><path d="M213.82919,190.09298c-3.94207,3.16081 -9.96156,3.21994 -9.96156,3.21994" fill="none" stroke="#001026" stroke-linecap="round" stroke-linejoin="round"/><path d="M212.70436,199.45166c-5.26844,0.39661 -8.52237,-1.20505 -8.52237,-1.20505" fill="none" stroke="#001026" stroke-linecap="round" stroke-linejoin="round"/><path d="M184.31459,190.9762c1.75558,0.00714 3.59409,0.18181 3.67532,0.76734c0.07886,1.17073 -1.18467,3.50641 -2.52257,3.58457c-1.50546,0.1611 -5.00814,-1.94316 -5.00271,-3.28076c-0.07952,-1.00354 2.178,-1.07797 3.84998,-1.07118z" fill="#001026" stroke="#001026" stroke-linecap="round" stroke-linejoin="round"/><path d="M146.70004,189.56929c0,0 7.18,2.36998 10.09545,4.97347" fill="none" stroke="#001026" stroke-linecap="round" stroke-linejoin="round"/><path d="M157.03437,197.46979c-3.60053,1.40655 -9.78316,0.46182 -9.78316,0.46182" fill="none" stroke="#001026" stroke-linecap="round" stroke-linejoin="round"/><g><path d="M194.21907,181.23521c2.40908,3.77183 2.47534,8.0357 0.12847,9.53099c-2.34688,1.49526 -6.18532,-0.27595 -8.67802,-4.04811c-2.40908,-3.77183 -2.47534,-8.0357 -0.12847,-9.53099c2.34722,-1.57885 6.2689,0.27628 8.67802,4.04811z" fill="#ffffff" stroke="#001026" stroke-linecap="round" stroke-linejoin="round"/><path d="M195.2719,183.97161c-0.00374,0.9196 -0.67557,1.66928 -1.51157,1.66586c-0.83599,-0.0034 -1.50172,-0.75849 -1.49797,-1.67809c0.00374,-0.9196 0.67557,-1.66927 1.51157,-1.66585c0.83599,0.0034 1.50172,0.75849 1.49796,1.67808" fill="#001026" stroke="none" stroke-linecap="butt" stroke-linejoin="miter"/></g><g><path d="M173.47696,183.49169c2.49302,3.68855 2.30745,8.20224 0.04384,9.78145c-2.76522,1.57718 -6.43885,0.39185 -8.93185,-3.29674c-2.57664,-3.6889 -2.72445,-8.45473 -0.12542,-10.28339c2.59939,-1.91225 6.52041,0.11012 9.01343,3.79868z" fill="#ffffff" stroke="#001026" stroke-linecap="round" stroke-linejoin="round"/><path d="M174.36222,186.31105c-0.00373,0.9196 -0.67557,1.66925 -1.51157,1.66587c-0.83599,-0.0034 -1.50171,-0.75849 -1.49798,-1.67809c0.00373,-0.9196 0.67557,-1.66927 1.51157,-1.66586c0.83564,0.087 1.50171,0.75849 1.49795,1.67809" fill="#001026" stroke="none" stroke-linecap="butt" stroke-linejoin="miter"/></g></g></g><g fill="#4f00b0" fill-rule="nonzero" stroke-linecap="butt" stroke-linejoin="miter"><path d="M281.51059,367.15577l150.40727,-17.83954l1.42877,13.4636l-150.40725,17.83954z" stroke="#1c124f" stroke-width="1.5"/><path d="M282.93932,380.61938l-8.06865,-76.0325l12.73517,-1.51049l8.06865,76.0325z" stroke="#1c124f" stroke-width="1.5"/><path d="M426.97905,363.53509l-8.06865,-76.0325l12.73517,-1.5105l8.06866,76.03251z" stroke="#1c124f" stroke-width="1.5"/><path d="M286.40062,367.5664l145.62107,-17.27185l1.20772,11.38061l-145.62107,17.27186z" stroke="none" stroke-width="0"/></g><g fill-rule="nonzero" stroke="#000000" stroke-width="1.5" stroke-linecap="butt" stroke-linejoin="miter"><path d="M664.01905,417.54399l-169.55533,10.52767l-35.12082,-245.54836l195.58375,-37.45329z" fill="url(#color-5)"/><path d="M658.79995,176.95064l-203.05693,24.17198l-3.74224,-32.03374l203.05693,-24.17198z" fill="#336130"/></g><path d="M278.5306,205.84516l76.20257,-38.02078" fill="none" fill-rule="nonzero" stroke="url(#color-6)" stroke-width="0.5" stroke-linecap="round" stroke-linejoin="miter"/><path d="M246.61007,200.76276l44.89135,-21.47055" fill="none" fill-rule="nonzero" stroke="url(#color-7)" stroke-width="0.5" stroke-linecap="round" stroke-linejoin="miter"/><path d="M229.00319,187.62889l55.62661,-25.49628" fill="none" fill-rule="nonzero" stroke="url(#color-8)" stroke-width="0.5" stroke-linecap="round" stroke-linejoin="miter"/><path d="M232.13431,168.39487l44.89135,-21.47055" fill="none" fill-rule="nonzero" stroke="url(#color-9)" stroke-width="0.5" stroke-linecap="round" stroke-linejoin="miter"/><path d="M312.97195,110.8548l-76.20257,38.02078" fill="none" fill-rule="nonzero" stroke="url(#color-10)" stroke-width="0.5" stroke-linecap="round" stroke-linejoin="miter"/><text transform="translate(26.31192,47.70901) scale(0.94738,0.97593)" font-size="40" xml:space="preserve" fill="url(#color-11)" fill-rule="nonzero" stroke="url(#color-12)" stroke-width="2" stroke-linecap="butt" stroke-linejoin="miter" font-family="Pixel" font-weight="normal" text-anchor="start"><tspan x="0" dy="0">THE ULTIMATE</tspan><tspan x="0" dy="46.15px">SCRATCHER</tspan></text><g fill-rule="evenodd" stroke="#000000"><path d="M356.96593,96.75382l9.03994,-11.7509l5.54565,13.79619c4.75127,1.77849 8.93107,4.7041 12.0419,8.62759c5.173,6.50791 5.45152,12.34516 5.45152,12.34516c0,0 7.12067,-0.19008 9.56597,8.51391c4.71015,16.62176 -14.50811,30.76472 -41.72342,32.26049c-20.49392,1.1234 -38.01,-9.1436 -39.53143,-24.62199c-1.3924,-13.93339 4.82518,-19.85495 4.82518,-19.85495l-5.95514,-22.97853l19.0418,9.00802c3.22552,-2.04693 6.85666,-3.59597 10.66793,-4.3587c3.61464,-0.69604 7.27016,-0.98226 11.03019,-0.98622z" fill="none" stroke-width="1.5" stroke-linecap="round" stroke-linejoin="round"/><path d="M350.86858,158.137c0,0 -9.46575,8.50583 -28.65726,15.54296c-18.69996,6.87043 -29.08323,7.21339 -30.10295,0.56836c-1.12425,-6.92748 6.24631,-6.14317 10.52051,-6.85097c3.71291,-0.72937 7.35629,-1.64698 10.89513,-2.84692l-2.25263,-7.2864c0.06344,-0.12735 34.19695,-17.31533 39.59728,0.87303z" fill="#de4ad2" stroke-width="1.5" stroke-linecap="round" stroke-linejoin="round"/><path d="M316.2847,155.56394c0.77003,0.58629 2.50663,1.69222 -0.56128,5.06287c-3.06784,3.37052 -10.88893,3.16257 -11.81462,3.05273c-4.19424,-0.27259 -8.40069,-1.17652 -12.22624,-2.84511c-13.0107,-5.86297 -11.37217,-19.97674 -6.78674,-21.63741c4.32661,-1.56497 5.36598,5.84866 9.77726,11.71633c0.36403,0.48423 0.75104,0.95791 1.16473,1.41517c2.18932,2.32943 4.99083,3.92166 8.17338,4.74913c3.84816,1.13143 11.46864,-2.19403 12.27345,-1.51367z" fill="#de4ad2" stroke-width="1.5" stroke-linecap="round" stroke-linejoin="round"/><path d="M288.98832,152.97141c-1.8574,1.25395 -2.5433,4.10447 -2.5433,4.10447c0,0 -1.2984,-1.26407 -2.48518,-3.21899c-0.83565,-1.37652 -1.5659,-3.12893 -1.96635,-4.87855c-0.94381,-5.16878 1.35294,-9.43731 3.4171,-9.71359c2.41811,-0.2118 3.3404,1.65808 4.80448,4.55119c0,0 1.93696,3.7579 2.77599,5.19538c0.61537,1.05428 1.79857,2.64201 1.79857,2.64201c0,0 -4.19057,0.34815 -5.80131,1.31808z" fill="#ffffff" stroke-width="0" stroke-linecap="butt" stroke-linejoin="miter"/><path d="M382.25778,143.99803c7.54875,-0.22936 19.77717,-5.75282 23.97966,-8.44878c6.71113,-4.28828 12.56616,6.75507 3.0738,12.19801c-9.59068,5.47643 -29.163,3.10947 -29.163,3.10947c-4.92325,-0.44902 -5.53752,-6.5962 2.10953,-6.85873z" fill="#f9a41f" stroke-width="1.5" stroke-linecap="butt" stroke-linejoin="miter"/><path d="M382.25778,143.99803c7.54875,-0.22936 19.77717,-5.75282 23.97966,-8.44878c6.71113,-4.28828 12.56616,6.75507 3.0738,12.19801c-9.59068,5.47643 -29.163,3.10947 -29.163,3.10947c-4.92325,-0.44902 -5.53752,-6.5962 2.10953,-6.85873z" fill="#de4ad2" stroke-width="1.5" stroke-linecap="round" stroke-linejoin="round"/><path d="M325.97041,150.64371c-2.17085,-1.38231 -4.43375,-2.41568 -6.8873,-3.06672c-2.13794,-3.08826 -3.5245,-6.53728 -3.9914,-10.19225c4.19631,2.07262 8.10375,4.56086 11.75731,7.55896c3.01046,2.15699 3.22544,8.12166 -0.87866,5.70001z" fill="#231f20" stroke-width="1.5" stroke-linecap="round" stroke-linejoin="round" opacity="0.1"/><path d="M325.91631,150.49741c-11.98259,-7.27067 -16.60887,-0.93545 -23.03335,-3.94738c-5.19159,-2.37058 -5.82632,-11.26468 5.29194,-11.11565c7.68805,0.14718 18.52164,9.39635 18.52164,9.39635c3.17843,2.31182 3.35867,8.18239 -0.78026,5.66664z" fill="#f9a41f" stroke-width="1.5" stroke-linecap="butt" stroke-linejoin="miter"/><path d="M325.91631,150.49741c-11.98259,-7.27067 -16.60887,-0.93545 -23.03335,-3.94738c-5.19159,-2.37058 -5.82632,-11.26468 5.29194,-11.11565c7.68805,0.14718 18.52164,9.39635 18.52164,9.39635c3.17843,2.31182 3.35867,8.18239 -0.78026,5.66664z" fill="#de4ad2" stroke-width="1.5" stroke-linecap="round" stroke-linejoin="round"/><path d="M344.31304,156.86435c-0.12496,2.05489 -11.45436,9.70963 -19.14653,11.0469c-3.31972,0.59605 -6.81552,-1.07849 -5.03793,-4.64719c2.63171,-5.44704 16.56809,-9.64296 16.56809,-9.64296z" fill="#ffffff" stroke-width="0" stroke-linecap="butt" stroke-linejoin="miter"/><path d="M356.96593,96.85838l9.03994,-11.7509l5.54565,13.79618c4.75127,1.77849 8.93107,4.7041 12.0419,8.62759c5.173,6.50791 5.45152,12.34516 5.45152,12.34516c0,0 7.12067,-0.19008 9.56597,8.51391c4.71015,16.62176 -14.50811,30.76471 -41.72342,32.26049c-20.49392,1.1234 -38.01,-9.1436 -39.53143,-24.622c-1.3924,-13.93339 4.82518,-19.85495 4.82518,-19.85495l-5.95514,-22.97853l19.0418,9.00802c3.22552,-2.04693 6.85666,-3.59597 10.66793,-4.3587c3.61464,-0.69604 7.27016,-0.98226 11.03019,-0.98622z" fill="#f9a41f" stroke-width="1.5" stroke-linecap="butt" stroke-linejoin="miter"/><path d="M356.96593,96.75382l9.03994,-11.7509l5.54565,13.79618c4.75127,1.77849 8.93107,4.7041 12.0419,8.62759c5.173,6.50791 5.45152,12.34516 5.45152,12.34516c0,0 7.12067,-0.19008 9.56597,8.51391c4.71015,16.62176 -14.50811,30.76471 -41.72342,32.26049c-20.49392,1.1234 -38.01,-9.1436 -39.53143,-24.622c-1.3924,-13.93339 4.82518,-19.85495 4.82518,-19.85495l-5.95514,-22.97853l19.0418,9.00802c3.22552,-2.04693 6.85666,-3.59597 10.66793,-4.3587c3.61464,-0.69604 7.27016,-0.98226 11.03019,-0.98622z" fill="#de4ad2" stroke-width="1.5" stroke-linecap="round" stroke-linejoin="round"/><path d="M389.43516,120.1054c4.23717,0.30646 6.8063,2.30133 8.96827,9.14109c1.01244,3.08575 1.00438,7.57106 -1.3588,12.18055c-4.57499,8.92375 -17.09918,18.31296 -41.9832,18.91381c-14.10999,0.97705 -27.132,-4.42554 -24.24743,-20.80752c2.64128,-15.08405 27.21981,-7.98912 36.53222,-10.58513c9.18286,-2.66069 12.26869,-9.5771 22.08894,-8.8428z" fill="#ffffff" stroke-width="0" stroke-linecap="butt" stroke-linejoin="miter"/><path d="M337.03315,103.08769l-1.76537,-0.8844" fill="none" stroke-width="1.5" stroke-linecap="round" stroke-linejoin="round"/><path d="M321.19876,141.03388c0,0 -4.56287,1.1234 -6.9631,1.51366c-2.53334,0.3294 -5.10149,0.56469 -7.73923,0.61173" fill="none" stroke-width="1.5" stroke-linecap="round" stroke-linejoin="round"/><path d="M303.78711,131.04925c3.0085,0.35688 5.88995,0.96877 8.64441,1.8354c2.85286,0.83342 5.71175,1.98243 8.40886,3.2923" fill="none" stroke-width="1.5" stroke-linecap="round" stroke-linejoin="round"/><path d="M380.86342,107.92731c4.51777,5.0354 5.43308,11.39816 2.21988,14.07659c-3.31158,2.71163 -9.58444,0.70774 -14.10218,-4.32758c-4.51777,-5.0354 -5.43306,-11.39815 -2.21987,-14.07657c3.17839,-2.77252 9.58443,-0.70777 14.10214,4.3276z" fill="#ffffff" stroke-width="1.5" stroke-linecap="round" stroke-linejoin="round"/><path d="M380.08111,111.79398c0.4178,1.1295 -0.31539,2.43723 -1.49509,2.83726c-1.17956,0.39996 -2.54557,-0.30196 -2.96332,-1.43133c-0.4178,-1.1295 0.15358,-2.27653 1.29841,-2.77071c1.27793,-0.43333 2.74227,0.23542 3.16001,1.36477v0" fill="#000000" stroke-width="0" stroke-linecap="butt" stroke-linejoin="miter"/><path d="M350.43887,115.7015c4.51778,5.0354 5.01131,11.75307 1.08113,14.88635c-3.92999,3.13337 -10.7865,1.64498 -15.20596,-3.42363c-4.55259,-5.12953 -5.01121,-11.7531 -1.08118,-14.88632c3.93003,-3.13321 10.78664,-1.64503 15.20604,3.42367z" fill="#ffffff" stroke-width="1.5" stroke-linecap="round" stroke-linejoin="round"/><path d="M349.46614,119.95054c0.02456,1.26283 -0.91138,2.32154 -2.23033,2.34515c-1.31883,0.02347 -2.42473,-0.87254 -2.44924,-2.1354c-0.08809,-1.13526 0.84779,-2.19404 2.03358,-2.27834c1.34753,-0.24515 2.58655,0.71174 2.64601,2.06859v0" fill="#000000" stroke-width="0" stroke-linecap="butt" stroke-linejoin="miter"/><path d="M366.04624,126.19197c2.134,-0.51172 5.82857,-2.18825 6.50231,0.23146c0.1863,1.10193 -1.37636,5.55098 -3.87491,5.97442c-2.49851,0.42357 -7.5855,-1.66479 -7.65718,-3.65306c-0.07168,-1.9882 3.09241,-2.10786 5.02977,-2.55288z" fill="#000000" stroke-width="0" stroke-linecap="round" stroke-linejoin="round"/><path d="M378.15366,136.49203c0.57552,2.45302 -16.09695,6.72933 -16.62114,3.51752" fill="none" stroke-width="1.5" stroke-linecap="round" stroke-linejoin="round"/><path d="M316.2847,155.56394c0.77003,0.58629 2.50663,1.69222 -0.56128,5.06287c-3.06784,3.37052 -10.88893,3.16257 -11.81462,3.05273c-4.19424,-0.27259 -8.40069,-1.17652 -12.22624,-2.84511c-13.0107,-5.86297 -11.37217,-19.97674 -6.78674,-21.63741c4.32661,-1.56497 5.36598,5.84866 9.77726,11.71633c0.36403,0.48423 0.75104,0.95791 1.16473,1.41517c2.18932,2.32943 4.99083,3.92166 8.17338,4.74913c3.84816,1.13143 11.46864,-2.19403 12.27345,-1.51367z" fill="none" stroke-width="1.5" stroke-linecap="round" stroke-linejoin="round"/><path d="M319.83457,157.38494c0.46686,3.65489 -3.3465,7.70193 -8.40072,8.99209c-5.05441,1.29013 -9.41238,-0.62172 -9.78103,-4.30992c-0.36869,-3.68827 3.3464,-7.702 8.36601,-9.08622c5.05422,-1.29015 9.44716,0.71574 9.81573,4.40398z" fill="#f9a41f" stroke-width="1.5" stroke-linecap="butt" stroke-linejoin="miter"/><path d="M319.83457,157.38494c0.46686,3.65489 -3.3465,7.70193 -8.40072,8.99209c-5.05441,1.29013 -9.41238,-0.62172 -9.78103,-4.30992c-0.36869,-3.68827 3.3464,-7.702 8.36601,-9.08622c5.05422,-1.29015 9.44716,0.71574 9.81573,4.40398z" fill="#de4ad2" stroke-width="1.5" stroke-linecap="round" stroke-linejoin="round"/><path d="M408.6611,118.47391c-1.51955,1.57453 -3.37505,2.83918 -5.43325,3.85481c-2.87937,1.18821 -5.69542,2.24894 -8.61584,3.0273" fill="none" stroke-width="1.5" stroke-linecap="round" stroke-linejoin="round"/><path d="M408.99894,130.75242c-1.90254,0.53914 -3.87476,0.8901 -5.88171,1.14699c-2.56818,0.23521 -5.00944,0.21556 -7.4566,-0.11978" fill="none" stroke-width="1.5" stroke-linecap="round" stroke-linejoin="round"/><path d="M356.96593,96.75382l9.03994,-11.7509l5.54565,13.79618c4.75127,1.77849 8.93107,4.7041 12.0419,8.62759c5.173,6.50791 5.45152,12.34516 5.45152,12.34516c0,0 7.12067,-0.19008 9.56597,8.51391c4.71015,16.62176 -14.50811,30.76471 -41.72342,32.26049c-20.49392,1.1234 -38.01,-9.1436 -39.53143,-24.622c-1.3924,-13.93339 4.82518,-19.85495 4.82518,-19.85495l-5.95514,-22.97853l19.0418,9.00802c3.22552,-2.04693 6.85666,-3.59597 10.66793,-4.3587c3.61464,-0.69604 7.27016,-0.98226 11.03019,-0.98622z" fill="none" stroke-width="1.5" stroke-linecap="round" stroke-linejoin="round"/></g><path d="M40.97881,429.75219l-19.21817,-140.0028l-79.34238,16.09724l-1.93386,-14.08802l91.59311,-18.5827l0.35743,2.60389h0.00001l20.83141,151.75518z" fill="#a6b000" fill-rule="nonzero" stroke="#4f4512" stroke-width="1.5" stroke-linecap="butt" stroke-linejoin="miter"/><path d="M242.13076,251.51033l-151.75518,20.83141l-2.21722,-12.28755l151.75518,-20.83141z" fill="#00afaf" fill-rule="nonzero" stroke="#12464f" stroke-width="1.5" stroke-linecap="butt" stroke-linejoin="miter"/><path d="M251.32078,302.44014l-151.75518,20.83141l-2.21722,-12.28755l151.75518,-20.83141z" fill="#00afaf" fill-rule="nonzero" stroke="#12464f" stroke-width="1.5" stroke-linecap="butt" stroke-linejoin="miter"/><path d="M96.9617,323.62899l-11.40723,-63.21737l14.08802,-1.93386l11.40723,63.21737z" fill="#00afaf" fill-rule="nonzero" stroke="#12464f" stroke-width="1.5" stroke-linecap="butt" stroke-linejoin="miter"/><path d="M242.13076,251.51033l-140.27105,19.25499l6.97279,38.64227l140.27106,-19.25498l2.21722,12.28755l-140.27106,19.25499v0l-14.08802,1.93386l-11.40723,-63.21737l2.60389,-0.35744v0l151.75518,-20.83141z" fill="#00afaf" fill-rule="nonzero" stroke="#12464f" stroke-width="1.5" stroke-linecap="butt" stroke-linejoin="miter"/></g></g></svg>