<svg version="1.1" xmlns="http://www.w3.org/2000/svg" xmlns:xlink="http://www.w3.org/1999/xlink" width="846.26403" height="588.20872" viewBox="0,0,846.26403,588.20872"><defs><linearGradient x1="393.52748" y1="438.56007" x2="612.74669" y2="438.56007" gradientUnits="userSpaceOnUse" id="color-1"><stop offset="0" stop-color="#3c2b17"/><stop offset="1" stop-color="#432f1b"/></linearGradient><linearGradient x1="184.72693" y1="367.60437" x2="0.00001" y2="367.60437" gradientUnits="userSpaceOnUse" id="color-2"><stop offset="0" stop-color="#573e22"/><stop offset="1" stop-color="#432f1b"/></linearGradient><linearGradient x1="455.27538" y1="367.60436" x2="640.0023" y2="367.60436" gradientUnits="userSpaceOnUse" id="color-3"><stop offset="0" stop-color="#573e22"/><stop offset="1" stop-color="#432f1b"/></linearGradient></defs><g transform="translate(103.13087,0.5)"><g stroke="#000000" stroke-miterlimit="10"><g stroke-width="1"><path d="M393.52748,587.20872v-297.2973h219.21922v297.2973z" fill="url(#color-1)"/><path d="M388.89376,298.29403v-17.2h228.48665v17.2z" fill="#0ea118"/></g><path d="M0.00001,211.93734v-211.93734h13.23919v211.93734z" fill="#575757" stroke-width="1"/><path d="M0.00001,555.20872l-96.89666,-214.71265l96.89667,-160.49606h222v20.71428l-7.22676,84.98754l-29.27324,60.79818l-0.77309,208.70871z" fill="url(#color-2)" stroke-width="1"/><path d="M-95.16238,351.22478l-7.38894,-13.65719l102.55134,-161.26759h228.36364v17.2h-226.26562z" fill="#12c11e" stroke-width="1"/><path d="" fill="#c21111" stroke-width="0"/><path d="M626.76082,211.93734v-211.93734h13.23918v211.93734z" fill="#575757" stroke-width="1"/><g stroke-width="1"><path d="M455.27539,555.20871l-0.77309,-208.70871l-29.27324,-60.79818l-7.22676,-84.98754v-20.71428h222l96.89666,160.49606l-96.89666,214.71265z" fill="url(#color-3)"/><path d="M637.90428,193.5h-226.26563v-17.2h228.36364l102.55133,161.26759l-7.38894,13.65719z" fill="#12c11e"/></g></g></g></svg>