<svg version="1.1" xmlns="http://www.w3.org/2000/svg" xmlns:xlink="http://www.w3.org/1999/xlink" width="640" height="897.79069" viewBox="0,0,640,897.79069"><defs><linearGradient x1="320" y1="0" x2="320" y2="360" gradientUnits="userSpaceOnUse" id="color-1"><stop offset="0" stop-color="#bde0e8"/><stop offset="1" stop-color="#55e3e9"/></linearGradient></defs><g transform="translate(0,360)"><g stroke-miterlimit="10"><path d="M0,360v-360h640v360z" fill="url(#color-1)" stroke="#de4ad2" stroke-width="0"/><g stroke="#3c3c3c" stroke-width="0"><path d="M403.96048,450.2018l15.75131,-214.26606l196.74287,14.46313l-15.75131,214.26606z" fill="#abc2c3"/><path d="M419.25615,242.13388l0.91129,-12.39628l205.06011,15.07456l-0.91129,12.39628z" fill="#94cfd2"/></g><g stroke="#3c3c3c" stroke-width="0"><path d="M294.33489,537.79068l-0.6957,-150.82499l-26.34277,-43.93628l-6.50331,-61.41692v-14.96934h199.77617l87.19659,115.98375l-87.19659,155.16379z" fill="#abc2c3"/><path d="M458.68129,276.39903h-203.61478v-12.42972h205.50277l92.28518,116.5413l-6.64925,9.86948z" fill="#94cfd2"/></g><g stroke="#3c3c3c" stroke-width="0"><path d="M36.57262,520.05536l-15.64583,-214.27379l196.74996,-14.36628l15.64583,214.27379z" fill="#abc2c3"/><path d="M17.20916,312.12692l-0.90518,-12.39671l205.06752,-14.97361l0.90518,12.39671z" fill="#94cfd2"/></g><path d="M0,0v-360h640v360z" fill="#bde0e8" stroke="#de4ad2" stroke-width="0"/><g fill="none" stroke="none" stroke-width="1" font-family="sans-serif" font-weight="normal" font-size="12" text-anchor="start"><g/><g/></g><g fill="none" stroke="none" stroke-width="1" font-family="sans-serif" font-weight="normal" font-size="12" text-anchor="start"><g/><g/></g></g></g></svg>