<svg version="1.1" xmlns="http://www.w3.org/2000/svg" xmlns:xlink="http://www.w3.org/1999/xlink" width="25.77162" height="13.45756" viewBox="0,0,25.77162,13.45756"><g transform="translate(-307.11419,-179.87273)"><g stroke-miterlimit="10"><path d="M307.11419,193.09892v-13.09891h25.77162v13.09891z" fill-opacity="0.00392" fill="#009999" fill-rule="nonzero" stroke-opacity="0.00874" stroke="#000000" stroke-width="0" stroke-linecap="butt" stroke-linejoin="miter"/><g fill-rule="evenodd" stroke="#000000"><path d="M315.99825,189.33124c0.21047,0.05262 0.65773,0.17101 0.02631,0.61827c-0.63142,0.44726 -2.44675,0.53933 -2.65722,0.53933c-0.81558,0.01316 -1.81533,0.01315 -2.92031,-0.17102c-3.20971,-0.52618 -3.23602,-2.24943 -2.20996,-2.52567c0.99975,-0.27624 1.447,0.78928 2.894,1.43384c0.63142,0.2894 1.39438,0.39464 2.0258,0.46042c0.89451,0.07892 2.6046,-0.42094 2.84138,-0.35518z" fill="#de4ad2" stroke-width="0.5" stroke-linecap="round" stroke-linejoin="round"/><path d="M309.4736,188.26572c0.42095,0.35518 1.23653,0.85505 1.23653,0.85505c0,0 -0.97344,-0.11839 -1.52593,0.10523c-0.44725,0.17101 -0.34202,0.46041 -0.2894,0.55249c-0.34202,-0.17101 -0.76296,-0.40779 -1.02606,-0.8682c-0.26309,-0.46041 0,-1.0129 0.52618,-1.09184c0.52618,-0.05262 0.65773,0.1447 1.07867,0.44726z" fill="#ffffff" stroke-width="0" stroke-linecap="butt" stroke-linejoin="miter"/><path d="M309.4736,188.26572c0.42095,0.35518 1.23653,0.85505 1.23653,0.85505c0,0 -0.97344,-0.11839 -1.52593,0.10523c-0.44725,0.17101 -0.34202,0.46041 -0.2894,0.55249c-0.34202,-0.17101 -0.76296,-0.40779 -1.02606,-0.8682c-0.26309,-0.46041 0,-1.0129 0.52618,-1.09183c0.52618,-0.05262 0.65773,0.1447 1.07867,0.44726z" fill="none" stroke-width="0" stroke-linecap="butt" stroke-linejoin="miter"/><path d="M315.99825,189.33124c0.21047,0.05262 0.65773,0.17101 0.02631,0.61827c-0.63142,0.44726 -2.44675,0.53933 -2.65722,0.53933c-0.81558,0.01316 -1.81533,0.01315 -2.92031,-0.17102c-3.20971,-0.52618 -3.23602,-2.24943 -2.20996,-2.52567c0.99975,-0.27624 1.447,0.78928 2.894,1.43384c0.63142,0.2894 1.39438,0.39464 2.0258,0.46042c0.89451,0.07892 2.6046,-0.42094 2.84138,-0.35518z" fill="none" stroke-width="0.5" stroke-linecap="round" stroke-linejoin="round"/></g><path d="M317.31371,190.69931c-0.47356,0.15786 -2.10473,0.73665 -4.18315,1.06552l-0.10524,0.01316c-0.10524,0.01316 -0.15785,0.07893 -0.10524,0.13155c0.44725,0.31571 1.26284,0.94713 -0.18416,1.17075c-1.39438,0.22362 -3.99898,-1.63117 -2.894,-2.11789c0.49987,-0.18417 0.94713,-0.09208 1.18391,-0.03946c0.13155,0.02631 0.26309,0.02631 0.39464,0.01315c0.31571,-0.05262 0.89451,-0.15785 1.34176,-0.27624c1.13129,-0.2894 1.39438,-0.4078 1.92056,-0.60512c0.52618,-0.19732 1.7364,-0.68403 2.70984,-0.26308c0.84189,0.35518 0.36833,0.7498 -0.07893,0.90766z" fill="#de4ad2" fill-rule="evenodd" stroke="#000000" stroke-width="0.5" stroke-linecap="round" stroke-linejoin="round"/><path d="M321.49686,187.96317c0.13155,0.05262 1.7364,0.99975 2.26258,0.76297c0.63142,-0.27624 1.49962,-0.81558 2.44675,-0.38148c0.94713,0.4341 -0.84189,1.17076 -1.60486,1.36808c-1.81533,0.40779 -3.28864,-0.36832 -3.60435,-0.5788c-0.31571,-0.21048 -0.8682,-0.56565 -0.8682,-0.90767c0.02631,-0.36832 0.92082,-0.4604 1.36807,-0.26308z" fill="#de4ad2" fill-rule="evenodd" stroke="#000000" stroke-width="0.5" stroke-linecap="round" stroke-linejoin="round"/><path d="M321.52317,191.02818c0.55249,0.24993 1.76271,0.76296 1.76271,0.76296c0,0 3.7622,-0.32887 3.7622,0.61826c0,0.56564 -1.89426,0.6972 -4.44624,0.57881c-0.15785,-0.01316 -0.31571,-0.03947 -0.44725,-0.09208c-0.5788,-0.24993 -2.23627,-0.98659 -3.28864,-1.49962c-1.55224,-0.76297 -2.84138,-1.26284 -2.84138,-1.26284c-2.23627,-1.09183 -0.42095,-1.55223 0.2894,-2.18365c0.65773,-0.53933 0.94713,-0.4341 2.52567,-0.27625c0.89451,0.06578 1.42069,0.10524 1.99949,0.09208c0.8682,-0.01316 0.71035,0.61826 0.47356,0.94713c0,0 -0.36833,0.48673 -0.71035,0.73666c-0.42095,0.30256 -0.73665,0.49988 -1.05236,0.61827z" fill="#de4ad2" fill-rule="evenodd" stroke="#000000" stroke-width="0.5" stroke-linecap="round" stroke-linejoin="round"/><path d="M319.31321,190.05475c0,0 -0.39464,-0.15786 -0.81558,-0.35518c-0.52618,-0.23678 -1.05236,-0.4341 -0.52618,-0.84189c0.47356,-0.31571 0.92082,-0.73665 2.10473,-0.35517c1.13129,0.35518 0.63142,0.68403 0.63142,0.68403c-0.5788,0.59196 -1.39438,0.8682 -1.39438,0.8682z" fill="#ffffff" fill-rule="evenodd" stroke="#000000" stroke-width="0" stroke-linecap="butt" stroke-linejoin="miter"/><path d="M315.34053,188.97607c0.5788,0.36832 1.47331,0.82873 0.34202,1.21022c-1.55224,0.4341 -2.84138,-0.88136 -3.10447,-1.34177c-0.23678,-0.40779 0.44725,-0.67087 1.02606,-0.8945c1.13129,-0.40779 2.07842,-0.77613 3.13078,-0.57881c1.31546,0.23678 0.36833,0.76297 -0.2894,0.99975c-0.39464,0.1447 -0.78927,0.30255 -1.07867,0.39463c-0.07893,0.06578 -0.10524,0.1447 -0.02631,0.21048z" fill="#de4ad2" fill-rule="evenodd" stroke="#000000" stroke-width="0.5" stroke-linecap="round" stroke-linejoin="round"/><path d="M323.6279,180.1099c0.07893,-0.02631 0.21047,-0.01316 0.23678,0.03946l0.68404,1.40753c0,0 1.68378,0.61827 2.18366,1.05237c0.84189,0.7235 0.8682,1.31545 0.8682,1.31545c0,0 1.86795,0.27625 2.18366,1.02606c0.31571,0.74981 -0.84189,2.1705 -5.788,2.65722c-4.94611,0.48672 -8.91879,-0.18417 -10.78673,-1.68379c-1.86795,-1.49962 1.07867,-3.28864 0.92082,-3.1834l-0.55249,-2.35466c-0.02631,-0.05262 0.10524,-0.09208 0.21047,-0.06578l3.1834,1.03921c0,0 1.18391,-0.22363 2.42044,-0.24994c0.73665,-0.02631 1.36807,0 1.97318,0.05262z" fill="#de4ad2" fill-rule="evenodd" stroke="#000000" stroke-width="0.5" stroke-linecap="butt" stroke-linejoin="miter"/><path d="M327.52165,183.97734c0,0 1.81533,0.23678 2.13104,0.98659c0.31571,0.74981 -0.94713,2.10473 -5.84062,2.57829c-6.3668,0.65773 -9.39235,-1.23653 -7.62964,-2.63091c1.76271,-1.40753 4.78826,-0.21047 6.99822,-0.28939c1.89426,-0.06578 2.10473,-0.89452 4.341,-0.64458z" fill="#ffffff" fill-rule="evenodd" stroke="#000000" stroke-width="0" stroke-linecap="butt" stroke-linejoin="miter"/><path d="M319.23428,185.38488c0,-0.05262 0.10524,-0.09209 0.21047,-0.07893c0.49987,0.09208 1.92056,0.30256 3.49911,0.35518c1.42069,0.03947 2.26258,-0.00001 2.65722,-0.03947c0.13155,-0.01316 0.23678,0.05263 0.18416,0.1184c-0.23678,0.35518 -1.23653,1.34176 -3.99898,1.26283c-2.39413,-0.13154 -2.63091,-0.97343 -2.55198,-1.618z" fill="#ffffff" fill-rule="evenodd" stroke="#000000" stroke-width="0.5" stroke-linecap="round" stroke-linejoin="round"/><path d="M332.36251,184.12204c-1.23653,0.49988 -3.13078,0.51302 -3.13078,0.51302" fill="none" fill-rule="evenodd" stroke="#000000" stroke-width="0.5" stroke-linecap="round" stroke-linejoin="round"/><path d="M332.02051,185.59535c-1.65747,0.06578 -2.68353,-0.18417 -2.68353,-0.18417" fill="none" fill-rule="evenodd" stroke="#000000" stroke-width="0.5" stroke-linecap="round" stroke-linejoin="round"/><path d="M323.07541,184.27989c0.55249,0 1.13129,0.02631 1.1576,0.11839c0.02631,0.18417 -0.36833,0.55249 -0.78927,0.56564c-0.47356,0.02631 -1.57855,-0.30255 -1.57855,-0.51303c-0.02631,-0.15786 0.68404,-0.17101 1.21022,-0.17101z" fill="#000000" fill-rule="evenodd" stroke="#000000" stroke-width="0.5" stroke-linecap="round" stroke-linejoin="round"/><path d="M311.23631,184.08257c0,0 2.26258,0.36833 3.1834,0.77613" fill="none" fill-rule="evenodd" stroke="#000000" stroke-width="0.5" stroke-linecap="round" stroke-linejoin="round"/><path d="M314.49864,185.31911c-1.13129,0.22362 -3.07817,0.07892 -3.07817,0.07892" fill="none" fill-rule="evenodd" stroke="#000000" stroke-width="0.5" stroke-linecap="round" stroke-linejoin="round"/><path d="M326.17988,182.74082c0.76296,0.59196 0.78927,1.26283 0.05262,1.49962c-0.73665,0.23678 -1.94687,-0.03946 -2.73615,-0.63142c-0.76296,-0.59196 -0.78927,-1.26284 -0.05262,-1.49963c0.73665,-0.24993 1.97318,0.03947 2.73615,0.63143z" fill="#ffffff" fill-rule="evenodd" stroke="#000000" stroke-width="0.5" stroke-linecap="round" stroke-linejoin="round"/><path d="M326.07464,183.49062c0,0.1447 -0.21047,0.26309 -0.47356,0.26309c-0.26309,0 -0.47356,-0.11839 -0.47356,-0.26309c0,-0.1447 0.21047,-0.26309 0.47356,-0.26309c0.26309,0 0.47356,0.11839 0.47356,0.26309" fill="#000000" fill-rule="evenodd" stroke="#000000" stroke-width="0" stroke-linecap="butt" stroke-linejoin="miter"/><path d="M319.65522,183.10914c0.78927,0.5788 0.73665,1.28915 0.02631,1.53909c-0.8682,0.24993 -2.0258,0.06577 -2.81507,-0.51304c-0.81558,-0.5788 -0.8682,-1.32861 -0.05262,-1.61801c0.81558,-0.30256 2.05211,0.01316 2.84138,0.59196z" fill="#ffffff" fill-rule="evenodd" stroke="#000000" stroke-width="0.5" stroke-linecap="round" stroke-linejoin="round"/><path d="M319.49736,183.8721c0,0.1447 -0.21047,0.26309 -0.47356,0.26309c-0.26309,0 -0.47356,-0.11839 -0.47356,-0.26309c0,-0.1447 0.21047,-0.26308 0.47356,-0.26308c0.26309,0.01316 0.47356,0.11838 0.47356,0.26308" fill="#000000" fill-rule="evenodd" stroke="#000000" stroke-width="0" stroke-linecap="butt" stroke-linejoin="miter"/><path d="M323.6279,180.1099c0.07893,-0.02631 0.21047,-0.01316 0.23678,0.03946l0.68404,1.40753c0,0 1.68378,0.61827 2.18366,1.05237c0.84189,0.7235 0.8682,1.31545 0.8682,1.31545c0,0 1.86795,0.27625 2.18366,1.02606c0.31571,0.74981 -0.84189,2.1705 -5.788,2.65722c-4.94611,0.48672 -8.91879,-0.18417 -10.78673,-1.68379c-1.86795,-1.49962 1.07867,-3.28864 0.92082,-3.1834l-0.55249,-2.35466c-0.02631,-0.05262 0.10524,-0.09208 0.21047,-0.06578l3.1834,1.03921c0,0 1.18391,-0.22363 2.42044,-0.24994c0.73665,-0.02631 1.36807,0 1.97318,0.05262z" fill="none" fill-rule="evenodd" stroke="#000000" stroke-width="0.5" stroke-linecap="butt" stroke-linejoin="miter"/></g></g></svg>